<?xml version="1.0" encoding="UTF-8"?>
<svg width="56px" height="56px" viewBox="0 0 56 56" version="1.1" xmlns="http://www.w3.org/2000/svg"
>
  <title>icon</title>
  <g id="icon" stroke="none" stroke-width="1" fill="none" fill-rule="evenodd">
    <path
      d="M24,16 L24,26 L32.1658855,26.0001873 C33.1179645,20.3246685 38.053942,16 44,16 C50.627417,16 56,21.372583 56,28 L56,40 L44,40 C38.05429,40 33.1185422,35.6758377 32.1660527,30.0008092 L24,30 L24,32 C24,36.418278 20.418278,40 16,40 L8,40 C3.581722,40 5.41083001e-16,36.418278 0,32 L0,24 C-5.41083001e-16,19.581722 3.581722,16 8,16 L24,16 L24,16 Z M44,20 C39.581722,20 36,23.581722 36,28 C36,32.418278 39.581722,36 44,36 C48.418278,36 52,32.418278 52,28 C52,23.581722 48.418278,20 44,20 Z"
      id="Line" fill="#202D39"/>
  </g>
</svg>
