<?xml version="1.0" encoding="UTF-8"?>
<svg width="56px" height="56px" viewBox="0 0 56 56" version="1.1" xmlns="http://www.w3.org/2000/svg">
  <path
    d="M24 16L24 26L32.1659 26.0002C33.118 20.3247 38.0539 16 44 16C50.6274 16 56 21.3726 56 28L56 40L44 40C38.0543 40 33.1185 35.6758 32.1661 30.0008L24 30L24 32C24 36.4183 20.4183 40 16 40L8 40C3.5817 40 0 36.4183 0 32L0 24C-0 19.5817 3.5817 16 8 16L24 16L24 16ZM44 20C39.5817 20 36 23.5817 36 28C36 32.4183 39.5817 36 44 36C48.4183 36 52 32.4183 52 28C52 23.5817 48.4183 20 44 20Z"
    fill="#202D39"/>
</svg>
