<?xml version="1.0" encoding="UTF-8"?>
<svg width="248px" height="40px" viewBox="0 0 248 40" version="1.1" xmlns="http://www.w3.org/2000/svg" xmlns:xlink="http://www.w3.org/1999/xlink">
    <title>logo</title>
    <g id="logo" stroke="none" stroke-width="1" fill="none" fill-rule="evenodd">
        <g id="Group" fill="#202D39" fill-rule="nonzero">
            <g id="Logo">
                <path d="M17.1428571,11.4285714 L17.1428571,18.5714286 L22.9756325,18.5715623 C23.6556889,14.5176203 27.1813872,11.4285714 31.4285714,11.4285714 C36.1624407,11.4285714 40,15.2661307 40,20 L40,28.5714286 L31.4285714,28.5714286 C27.1816357,28.5714286 23.6561016,25.4827412 22.9757519,21.4291494 L17.1428571,21.4285714 C17.1428571,25.3734625 13.9448911,28.5714286 10,28.5714286 L8,28.5714286 C3.581722,28.5714286 5.41083001e-16,24.9897066 0,20.5714286 L0,19.4285714 C-2.31743984e-15,15.0102934 3.581722,11.4285714 8,11.4285714 L17.1428571,11.4285714 L17.1428571,11.4285714 Z M31.4285714,14.2857143 C28.2726586,14.2857143 25.7142857,16.8440871 25.7142857,20 C25.7142857,23.1559129 28.2726586,25.7142857 31.4285714,25.7142857 C34.5844843,25.7142857 37.1428571,23.1559129 37.1428571,20 C37.1428571,16.8440871 34.5844843,14.2857143 31.4285714,14.2857143 Z" id="Line"></path>
            </g>
        </g>
        <g id="vue/horizontal" transform="translate(48.000000, 8.000000)" fill-rule="nonzero">
            <path d="M8.53554404,19.4796522 L14.7432124,5.10052174 L10.8375544,5.10052174 L8.30275648,12.4257391 L7.9147772,14.6775652 L7.50093264,14.6775652 L6.95776166,12.48 L4.21604145,5.10052174 L-2.13162821e-14,5.10052174 L6.46632124,19.4796522 L8.53554404,19.4796522 Z M21.0722487,19.7509565 C22.1413472,19.7509565 23.0897409,19.5022609 23.9174301,19.0048696 C24.7451192,18.5074783 25.3831295,17.8789565 25.8314611,17.1193043 L25.8314611,17.1193043 L26.1159793,17.1193043 L26.814342,19.344 L29.4784663,19.344 C29.3405181,18.7290435 29.2327461,18.0417391 29.1551503,17.282087 C29.0775544,16.5224348 29.0387565,15.7627826 29.0387565,15.0031304 L29.0387565,15.0031304 L29.0387565,5.10052174 L25.4176166,5.10052174 L25.4176166,14.1892174 C25.1762073,14.8222609 24.7968497,15.3467826 24.279544,15.7627826 C23.7622383,16.1787826 23.124228,16.3867826 22.365513,16.3867826 C21.4860933,16.3867826 20.8911917,16.1154783 20.5808083,15.5728696 C20.2704249,15.0302609 20.1152332,14.1711304 20.1152332,12.9954783 L20.1152332,12.9954783 L20.1152332,5.10052174 L16.4940933,5.10052174 L16.4940933,13.8093913 C16.4940933,14.9307826 16.5932435,15.8713043 16.791544,16.6309565 C16.9898446,17.3906087 17.2829845,18.0010435 17.6709637,18.4622609 C18.058943,18.9234783 18.5374508,19.2535652 19.106487,19.4525217 C19.6755233,19.6514783 20.3307772,19.7509565 21.0722487,19.7509565 Z M39.2734508,19.7509565 C40.4287668,19.7509565 41.5107979,19.5836522 42.519544,19.2490435 C43.5282902,18.9144348 44.3258031,18.512 44.9120829,18.0417391 L44.9120829,18.0417391 L43.6705492,15.6542609 C43.3256788,15.9074783 42.8299275,16.1561739 42.1832953,16.4003478 C41.5366632,16.6445217 40.8081244,16.7666087 39.9976788,16.7666087 C38.6526839,16.7666087 37.6827358,16.4726957 37.0878342,15.8848696 C36.4929326,15.2970435 36.1523731,14.3881739 36.0661554,13.1582609 L36.0661554,13.1582609 L45.1190052,13.1582609 C45.2224663,12.669913 45.2957513,12.1996522 45.3388601,11.7474783 C45.3819689,11.2953043 45.4035233,10.8793043 45.4035233,10.4994783 C45.4035233,9.39617391 45.235399,8.46921739 44.8991503,7.7186087 C44.5629016,6.968 44.1188808,6.37113043 43.5670881,5.928 C43.0152953,5.48486957 42.3859067,5.16834783 41.6789223,4.97843478 C40.9719378,4.78852174 40.2563316,4.69356522 39.5321036,4.69356522 C37.3076891,4.69356522 35.5833368,5.33113043 34.3590466,6.60626087 C33.1347565,7.8813913 32.5226114,9.75791304 32.5226114,12.2358261 C32.5226114,14.5690435 33.0657824,16.4048696 34.1521244,17.7433043 C35.2384663,19.0817391 36.9455751,19.7509565 39.2734508,19.7509565 Z M42.0410363,10.9064348 L36.1954819,10.9064348 C36.2816995,9.96591304 36.5834611,9.19269565 37.1007668,8.58678261 C37.6180725,7.98086957 38.4112746,7.67791304 39.4803731,7.67791304 C40.4287668,7.67791304 41.109886,7.96730435 41.5237306,8.54608696 C41.9375751,9.12486957 42.1100104,9.91165217 42.0410363,10.9064348 L42.0410363,10.9064348 Z M49.0684352,23.1422609 L59.1041658,1.38365217 L56.3624456,0.0271304348 L46.3784456,21.6772174 L49.0684352,23.1422609 Z" id="vue/" fill="#34495E"></path>
            <path d="M64.1399378,19.344 L64.1399378,10.5808696 C64.3296166,9.82121739 64.713285,9.21078261 65.290943,8.74956522 C65.868601,8.28834783 66.5023005,8.05773913 67.1920415,8.05773913 C68.1404352,8.05773913 68.7913782,8.32452174 69.1448705,8.85808696 C69.4983627,9.39165217 69.6751088,10.2733913 69.6751088,11.5033043 L69.6751088,11.5033043 L69.6751088,19.344 L73.2962487,19.344 L73.2962487,10.6622609 C73.2962487,9.52278261 73.2014093,8.56869565 73.0117306,7.8 C72.8220518,7.03130435 72.5418446,6.41634783 72.1711088,5.95513043 C71.8003731,5.49391304 71.3391088,5.16834783 70.7873161,4.97843478 C70.2355233,4.78852174 69.5888912,4.69356522 68.8474197,4.69356522 C67.7783212,4.69356522 66.8945907,4.89252174 66.196228,5.29043478 C65.4978653,5.68834783 64.9158964,6.20382609 64.4503212,6.83686957 L64.4503212,6.83686957 L64.1399378,6.83686957 L64.1399378,0.352695652 L60.5187979,0.352695652 L60.5187979,19.344 L64.1399378,19.344 Z M83.3240207,19.7509565 C84.4103627,19.7509565 85.3803109,19.5791304 86.2338653,19.2354783 C87.0874197,18.8918261 87.8073368,18.3944348 88.3936166,17.7433043 C88.9798964,17.0921739 89.428228,16.3008696 89.7386114,15.3693913 C90.0489948,14.437913 90.2041865,13.3933913 90.2041865,12.2358261 C90.2041865,11.1506087 90.0619275,10.1513043 89.7774093,9.23791304 C89.4928912,8.32452174 89.066114,7.52869565 88.4970777,6.85043478 C87.9280415,6.17217391 87.2124352,5.64313043 86.3502591,5.26330435 C85.4880829,4.88347826 84.4793368,4.69356522 83.3240207,4.69356522 C81.1168497,4.69356522 79.4183627,5.36278261 78.2285596,6.70121739 C77.0387565,8.03965217 76.4438549,9.88452174 76.4438549,12.2358261 C76.4438549,13.3029565 76.5818031,14.2932174 76.8576995,15.2066087 C77.1335959,16.12 77.5560622,16.9158261 78.1250984,17.594087 C78.6941347,18.2723478 79.4097409,18.8013913 80.2719171,19.1812174 C81.1340933,19.5610435 82.1514611,19.7509565 83.3240207,19.7509565 Z M83.3240207,16.5766957 C82.7549845,16.5766957 82.2721658,16.4591304 81.8755648,16.224 C81.4789637,15.9888696 81.1556477,15.6768696 80.9056166,15.288 C80.6555855,14.8991304 80.4702176,14.4424348 80.349513,13.917913 C80.2288083,13.3933913 80.168456,12.8326957 80.168456,12.2358261 C80.168456,10.6984348 80.4486632,9.58608696 81.0090777,8.89878261 C81.5694922,8.21147826 82.3411399,7.86782609 83.3240207,7.86782609 C83.893057,7.86782609 84.3801865,7.97634783 84.7854093,8.1933913 C85.1906321,8.41043478 85.5182591,8.7133913 85.7682902,9.10226087 C86.0183212,9.49113043 86.1993782,9.95234783 86.3114611,10.485913 C86.423544,11.0194783 86.4795855,11.6027826 86.4795855,12.2358261 C86.4795855,15.1297391 85.4277306,16.5766957 83.3240207,16.5766957 Z M96.9729326,19.344 L96.9729326,10.3095652 C97.1281244,9.73078261 97.4514404,9.25147826 97.9428808,8.87165217 C98.4343212,8.49182609 99.059399,8.30191304 99.818114,8.30191304 C100.33542,8.30191304 100.852725,8.39234783 101.370031,8.57321739 L101.370031,8.57321739 L101.887337,5.0733913 C101.283813,4.87443478 100.749264,4.77495652 100.283689,4.77495652 C99.5422176,4.77495652 98.8826528,4.97391304 98.3049948,5.37182609 C97.7273368,5.76973913 97.2660725,6.33947826 96.9212021,7.08104348 L96.9212021,7.08104348 L96.5849534,7.08104348 L96.1969741,5.10052174 L93.3517927,5.10052174 L93.3517927,19.344 L96.9729326,19.344 Z M106.224746,3.96104348 C106.966218,3.96104348 107.552497,3.77113043 107.983585,3.39130435 C108.414674,3.01147826 108.630218,2.55930435 108.630218,2.03478261 C108.630218,1.47408696 108.414674,0.994782609 107.983585,0.596869565 C107.552497,0.198956522 106.966218,-5.32907052e-14 106.224746,-5.32907052e-14 C105.500518,-5.32907052e-14 104.940104,0.194434783 104.543503,0.583304348 C104.146902,0.972173913 103.948601,1.456 103.948601,2.03478261 C103.948601,2.55930435 104.146902,3.01147826 104.543503,3.39130435 C104.940104,3.77113043 105.500518,3.96104348 106.224746,3.96104348 Z M108.112912,19.344 L108.112912,5.10052174 L104.491772,5.10052174 L104.491772,19.344 L108.112912,19.344 Z M123.106819,19.344 L123.106819,16.1697391 L115.761078,16.1697391 L117.468187,14.8674783 L117.442321,14.8674783 L123.106819,8.32904348 L123.106819,5.10052174 L111.674363,5.10052174 L111.674363,8.27478261 L119.045969,8.27478261 L117.364725,9.65843478 L117.390591,9.65843478 L111.674363,16.1154783 L111.674363,19.344 L123.106819,19.344 Z M132.125845,19.7509565 C133.212187,19.7509565 134.182135,19.5791304 135.035689,19.2354783 C135.889244,18.8918261 136.609161,18.3944348 137.19544,17.7433043 C137.78172,17.0921739 138.230052,16.3008696 138.540435,15.3693913 C138.850819,14.437913 139.00601,13.3933913 139.00601,12.2358261 C139.00601,11.1506087 138.863751,10.1513043 138.579233,9.23791304 C138.294715,8.32452174 137.867938,7.52869565 137.298902,6.85043478 C136.729865,6.17217391 136.014259,5.64313043 135.152083,5.26330435 C134.289907,4.88347826 133.281161,4.69356522 132.125845,4.69356522 C129.918674,4.69356522 128.220187,5.36278261 127.030383,6.70121739 C125.84058,8.03965217 125.245679,9.88452174 125.245679,12.2358261 C125.245679,13.3029565 125.383627,14.2932174 125.659523,15.2066087 C125.93542,16.12 126.357886,16.9158261 126.926922,17.594087 C127.495959,18.2723478 128.211565,18.8013913 129.073741,19.1812174 C129.935917,19.5610435 130.953285,19.7509565 132.125845,19.7509565 Z M132.125845,16.5766957 C131.556808,16.5766957 131.07399,16.4591304 130.677389,16.224 C130.280788,15.9888696 129.957472,15.6768696 129.70744,15.288 C129.457409,14.8991304 129.272041,14.4424348 129.151337,13.917913 C129.030632,13.3933913 128.97028,12.8326957 128.97028,12.2358261 C128.97028,10.6984348 129.250487,9.58608696 129.810902,8.89878261 C130.371316,8.21147826 131.142964,7.86782609 132.125845,7.86782609 C132.694881,7.86782609 133.18201,7.97634783 133.587233,8.1933913 C133.992456,8.41043478 134.320083,8.7133913 134.570114,9.10226087 C134.820145,9.49113043 135.001202,9.95234783 135.113285,10.485913 C135.225368,11.0194783 135.281409,11.6027826 135.281409,12.2358261 C135.281409,15.1297391 134.229554,16.5766957 132.125845,16.5766957 Z M145.774756,19.344 C145.774756,17.8608696 145.770446,16.3732174 145.761824,14.8810435 C145.753202,13.3888696 145.748891,11.9012174 145.748891,10.418087 C145.955813,9.73078261 146.33086,9.16556522 146.874031,8.72243478 C147.417202,8.27930435 148.076767,8.05773913 148.852725,8.05773913 C149.766632,8.05773913 150.404642,8.32904348 150.766756,8.87165217 C151.12887,9.41426087 151.309927,10.3005217 151.309927,11.5304348 L151.309927,11.5304348 L151.309927,19.344 L154.931067,19.344 L154.931067,10.7436522 C154.931067,9.568 154.831917,8.59130435 154.633617,7.81356522 C154.435316,7.03582609 154.150798,6.41634783 153.780062,5.95513043 C153.409326,5.49391304 152.943751,5.16834783 152.383337,4.97843478 C151.822922,4.78852174 151.180601,4.69356522 150.456373,4.69356522 C149.26657,4.69356522 148.300933,4.93321739 147.559461,5.41252174 C146.81799,5.89182609 146.223088,6.46608696 145.774756,7.13530435 L145.774756,7.13530435 L145.386777,7.13530435 L144.998798,5.10052174 L142.153617,5.10052174 L142.153617,19.344 L145.774756,19.344 Z M163.148269,19.778087 C163.820767,19.778087 164.514819,19.6876522 165.230425,19.5067826 C165.946031,19.325913 166.579731,19.1088696 167.131523,18.8556522 L167.131523,18.8556522 L166.38143,16.0069565 C166.071047,16.1516522 165.777907,16.2556522 165.50201,16.3189565 C165.226114,16.3822609 164.889865,16.413913 164.493264,16.413913 C163.855254,16.413913 163.428477,16.1652174 163.212933,15.6678261 C162.997389,15.1704348 162.889617,14.352 162.889617,13.2125217 L162.889617,13.2125217 L162.889617,8.27478261 L166.536622,8.27478261 L166.536622,5.10052174 L162.889617,5.10052174 L162.889617,2.14330435 L159.268477,3.14713043 L159.268477,5.10052174 L157.199254,5.10052174 L157.199254,8.27478261 L159.268477,8.27478261 L159.268477,15.3829565 C159.268477,16.9203478 159.57886,18.0372174 160.199627,18.7335652 C160.820394,19.429913 161.803275,19.778087 163.148269,19.778087 Z M172.839793,19.5610435 C173.926135,19.5610435 174.814176,19.3349565 175.503917,18.8827826 C176.193658,18.4306087 176.762694,17.888 177.211026,17.2549565 L177.211026,17.2549565 L177.521409,17.2549565 L178.116311,19.3711304 L181.064953,19.3711304 C180.875275,18.7742609 180.737326,18.1502609 180.651109,17.4991304 C180.564891,16.848 180.521782,16.1787826 180.521782,15.4914783 C180.521782,14.4786087 180.556269,13.52 180.625244,12.6156522 C180.694218,11.7113043 180.728705,10.797913 180.728705,9.87547826 C180.728705,9.11582609 180.646798,8.424 180.482984,7.8 C180.319171,7.176 180.047585,6.64243478 179.668228,6.19930435 C179.28887,5.75617391 178.775876,5.41704348 178.129244,5.18191304 C177.482611,4.94678261 176.685098,4.82921739 175.736705,4.82921739 C174.529658,4.82921739 173.361409,4.94678261 172.231959,5.18191304 C171.102508,5.41704348 170.149803,5.71547826 169.373845,6.07721739 L169.373845,6.07721739 L170.33086,8.95304348 C170.934383,8.64556522 171.628435,8.38782609 172.413016,8.17982609 C173.197596,7.97182609 174.003731,7.86782609 174.83142,7.86782609 C175.728083,7.86782609 176.340228,8.0306087 176.667855,8.35617391 C176.995482,8.68173913 177.159295,9.18817391 177.159295,9.87547826 C177.159295,10.1467826 177.13343,10.4723478 177.081699,10.8521739 C176.892021,10.816 176.555772,10.7572174 176.072953,10.6758261 C175.590135,10.5944348 175.107316,10.5537391 174.624497,10.5537391 C172.538031,10.5537391 170.981803,10.9652174 169.955813,11.7881739 C168.929824,12.6111304 168.416829,13.8274783 168.416829,15.4372174 C168.416829,16.034087 168.524601,16.5857391 168.740145,17.0921739 C168.955689,17.5986087 169.257451,18.0372174 169.64543,18.408 C170.033409,18.7787826 170.498984,19.0636522 171.042155,19.2626087 C171.585326,19.4615652 172.184539,19.5610435 172.839793,19.5610435 Z M174.107192,16.5224348 C173.503668,16.5224348 173.025161,16.3596522 172.671668,16.034087 C172.318176,15.7085217 172.14143,15.2201739 172.14143,14.5690435 C172.14143,14.0445217 172.365596,13.605913 172.813927,13.2532174 C173.262259,12.9005217 173.952,12.7241739 174.88315,12.7241739 C175.055585,12.7241739 175.249575,12.7332174 175.465119,12.7513043 C175.680663,12.7693913 175.896207,12.7965217 176.111751,12.8326957 C176.327295,12.8688696 176.525596,12.9050435 176.706653,12.9412174 C176.88771,12.9773913 177.021347,13.0135652 177.107565,13.0497391 L177.107565,13.0497391 L177.107565,14.6775652 C176.883399,15.1116522 176.529907,15.5276522 176.047088,15.9255652 C175.564269,16.3234783 174.917637,16.5224348 174.107192,16.5224348 Z M188.118218,19.778087 C188.790715,19.778087 189.441658,19.7012174 190.071047,19.5474783 C190.700435,19.3937391 191.187565,19.2354783 191.532435,19.0726957 L191.532435,19.0726957 L191.092725,16.1154783 C190.799585,16.224 190.545244,16.3008696 190.329699,16.346087 C190.114155,16.3913043 189.885679,16.413913 189.644269,16.413913 C188.799337,16.413913 188.37687,15.7266087 188.37687,14.352 L188.37687,14.352 L188.37687,0.352695652 L184.755731,0.352695652 L184.755731,16.5224348 C184.755731,17.68 185.04456,18.512 185.622218,19.0184348 C186.199876,19.5248696 187.031876,19.778087 188.118218,19.778087 Z" id="horizontal" fill="#41B883"></path>
        </g>
    </g>
</svg>