<svg xmlns="http://www.w3.org/2000/svg" width="248" height="40" version="1.1" viewBox="0 0 248 40"><path fill="#202D39" d="M17.1429 11.4286L17.1429 18.5714L22.9756 18.5716C23.6557 14.5176 27.1814 11.4286 31.4286 11.4286C36.1624 11.4286 40 15.2661 40 20L40 28.5714L31.4286 28.5714C27.1816 28.5714 23.6561 25.4827 22.9758 21.4291L17.1429 21.4286C17.1429 25.3735 13.9449 28.5714 10 28.5714L8 28.5714C3.5817 28.5714 0 24.9897 0 20.5714L0 19.4286C-0 15.0103 3.5817 11.4286 8 11.4286L17.1429 11.4286L17.1429 11.4286ZM31.4286 14.2857C28.2727 14.2857 25.7143 16.8441 25.7143 20C25.7143 23.1559 28.2727 25.7143 31.4286 25.7143C34.5845 25.7143 37.1429 23.1559 37.1429 20C37.1429 16.8441 34.5845 14.2857 31.4286 14.2857Z"/><g><path fill="#34495E" d="M8.5355 19.4797L14.7432 5.1005L10.8376 5.1005L8.3028 12.4257L7.9148 14.6776L7.5009 14.6776L6.9578 12.48L4.216 5.1005L-0 5.1005L6.4663 19.4797L8.5355 19.4797ZM21.0722 19.751C22.1413 19.751 23.0897 19.5023 23.9174 19.0049C24.7451 18.5075 25.3831 17.879 25.8315 17.1193L25.8315 17.1193L26.116 17.1193L26.8143 19.344L29.4785 19.344C29.3405 18.729 29.2327 18.0417 29.1552 17.2821C29.0776 16.5224 29.0388 15.7628 29.0388 15.0031L29.0388 15.0031L29.0388 5.1005L25.4176 5.1005L25.4176 14.1892C25.1762 14.8223 24.7968 15.3468 24.2795 15.7628C23.7622 16.1788 23.1242 16.3868 22.3655 16.3868C21.4861 16.3868 20.8912 16.1155 20.5808 15.5729C20.2704 15.0303 20.1152 14.1711 20.1152 12.9955L20.1152 12.9955L20.1152 5.1005L16.4941 5.1005L16.4941 13.8094C16.4941 14.9308 16.5932 15.8713 16.7915 16.631C16.9898 17.3906 17.283 18.001 17.671 18.4623C18.0589 18.9235 18.5375 19.2536 19.1065 19.4525C19.6755 19.6515 20.3308 19.751 21.0722 19.751ZM39.2735 19.751C40.4288 19.751 41.5108 19.5837 42.5195 19.249C43.5283 18.9144 44.3258 18.512 44.9121 18.0417L44.9121 18.0417L43.6705 15.6543C43.3257 15.9075 42.8299 16.1562 42.1833 16.4003C41.5367 16.6445 40.8081 16.7666 39.9977 16.7666C38.6527 16.7666 37.6827 16.4727 37.0878 15.8849C36.4929 15.297 36.1524 14.3882 36.0662 13.1583L36.0662 13.1583L45.119 13.1583C45.2225 12.6699 45.2958 12.1997 45.3389 11.7475C45.382 11.2953 45.4035 10.8793 45.4035 10.4995C45.4035 9.3962 45.2354 8.4692 44.8992 7.7186C44.5629 6.968 44.1189 6.3711 43.5671 5.928C43.0153 5.4849 42.3859 5.1683 41.6789 4.9784C40.9719 4.7885 40.2563 4.6936 39.5321 4.6936C37.3077 4.6936 35.5833 5.3311 34.359 6.6063C33.1348 7.8814 32.5226 9.7579 32.5226 12.2358C32.5226 14.569 33.0658 16.4049 34.1521 17.7433C35.2385 19.0817 36.9456 19.751 39.2735 19.751ZM42.041 10.9064L36.1955 10.9064C36.2817 9.9659 36.5835 9.1927 37.1008 8.5868C37.6181 7.9809 38.4113 7.6779 39.4804 7.6779C40.4288 7.6779 41.1099 7.9673 41.5237 8.5461C41.9376 9.1249 42.11 9.9117 42.041 10.9064L42.041 10.9064ZM49.0684 23.1423L59.1042 1.3837L56.3624.0271L46.3784 21.6772L49.0684 23.1423Z" transform="translate(48,8)"/><path fill="#41B883" d="M64.1399 19.344L64.1399 10.5809C64.3296 9.8212 64.7133 9.2108 65.2909 8.7496C65.8686 8.2883 66.5023 8.0577 67.192 8.0577C68.1404 8.0577 68.7914 8.3245 69.1449 8.8581C69.4984 9.3917 69.6751 10.2734 69.6751 11.5033L69.6751 11.5033L69.6751 19.344L73.2962 19.344L73.2962 10.6623C73.2962 9.5228 73.2014 8.5687 73.0117 7.8C72.8221 7.0313 72.5418 6.4163 72.1711 5.9551C71.8004 5.4939 71.3391 5.1683 70.7873 4.9784C70.2355 4.7885 69.5889 4.6936 68.8474 4.6936C67.7783 4.6936 66.8946 4.8925 66.1962 5.2904C65.4979 5.6883 64.9159 6.2038 64.4503 6.8369L64.4503 6.8369L64.1399 6.8369L64.1399.3527L60.5188.3527L60.5188 19.344L64.1399 19.344ZM83.324 19.751C84.4104 19.751 85.3803 19.5791 86.2339 19.2355C87.0874 18.8918 87.8073 18.3944 88.3936 17.7433C88.9799 17.0922 89.4282 16.3009 89.7386 15.3694C90.049 14.4379 90.2042 13.3934 90.2042 12.2358C90.2042 11.1506 90.0619 10.1513 89.7774 9.2379C89.4929 8.3245 89.0661 7.5287 88.4971 6.8504C87.928 6.1722 87.2124 5.6431 86.3503 5.2633C85.4881 4.8835 84.4793 4.6936 83.324 4.6936C81.1168 4.6936 79.4184 5.3628 78.2286 6.7012C77.0388 8.0397 76.4439 9.8845 76.4439 12.2358C76.4439 13.303 76.5818 14.2932 76.8577 15.2066C77.1336 16.12 77.5561 16.9158 78.1251 17.5941C78.6941 18.2723 79.4097 18.8014 80.2719 19.1812C81.1341 19.561 82.1515 19.751 83.324 19.751ZM83.324 16.5767C82.755 16.5767 82.2722 16.4591 81.8756 16.224C81.479 15.9889 81.1556 15.6769 80.9056 15.288C80.6556 14.8991 80.4702 14.4424 80.3495 13.9179C80.2288 13.3934 80.1685 12.8327 80.1685 12.2358C80.1685 10.6984 80.4487 9.5861 81.0091 8.8988C81.5695 8.2115 82.3411 7.8678 83.324 7.8678C83.8931 7.8678 84.3802 7.9763 84.7854 8.1934C85.1906 8.4104 85.5183 8.7134 85.7683 9.1023C86.0183 9.4911 86.1994 9.9523 86.3115 10.4859C86.4235 11.0195 86.4796 11.6028 86.4796 12.2358C86.4796 15.1297 85.4277 16.5767 83.324 16.5767ZM96.9729 19.344L96.9729 10.3096C97.1281 9.7308 97.4514 9.2515 97.9429 8.8717C98.4343 8.4918 99.0594 8.3019 99.8181 8.3019C100.3354 8.3019 100.8527 8.3923 101.37 8.5732L101.37 8.5732L101.8873 5.0734C101.2838 4.8744 100.7493 4.775 100.2837 4.775C99.5422 4.775 98.8827 4.9739 98.305 5.3718C97.7273 5.7697 97.2661 6.3395 96.9212 7.081L96.9212 7.081L96.585 7.081L96.197 5.1005L93.3518 5.1005L93.3518 19.344L96.9729 19.344ZM106.2247 3.961C106.9662 3.961 107.5525 3.7711 107.9836 3.3913C108.4147 3.0115 108.6302 2.5593 108.6302 2.0348C108.6302 1.4741 108.4147.9948 107.9836.5969C107.5525.199 106.9662-0 106.2247-0C105.5005-0 104.9401.1944 104.5435.5833C104.1469.9722 103.9486 1.456 103.9486 2.0348C103.9486 2.5593 104.1469 3.0115 104.5435 3.3913C104.9401 3.7711 105.5005 3.961 106.2247 3.961ZM108.1129 19.344L108.1129 5.1005L104.4918 5.1005L104.4918 19.344L108.1129 19.344ZM123.1068 19.344L123.1068 16.1697L115.7611 16.1697L117.4682 14.8675L117.4423 14.8675L123.1068 8.329L123.1068 5.1005L111.6744 5.1005L111.6744 8.2748L119.046 8.2748L117.3647 9.6584L117.3906 9.6584L111.6744 16.1155L111.6744 19.344L123.1068 19.344ZM132.1258 19.751C133.2122 19.751 134.1821 19.5791 135.0357 19.2355C135.8892 18.8918 136.6092 18.3944 137.1954 17.7433C137.7817 17.0922 138.2301 16.3009 138.5404 15.3694C138.8508 14.4379 139.006 13.3934 139.006 12.2358C139.006 11.1506 138.8638 10.1513 138.5792 9.2379C138.2947 8.3245 137.8679 7.5287 137.2989 6.8504C136.7299 6.1722 136.0143 5.6431 135.1521 5.2633C134.2899 4.8835 133.2812 4.6936 132.1258 4.6936C129.9187 4.6936 128.2202 5.3628 127.0304 6.7012C125.8406 8.0397 125.2457 9.8845 125.2457 12.2358C125.2457 13.303 125.3836 14.2932 125.6595 15.2066C125.9354 16.12 126.3579 16.9158 126.9269 17.5941C127.496 18.2723 128.2116 18.8014 129.0737 19.1812C129.9359 19.561 130.9533 19.751 132.1258 19.751ZM132.1258 16.5767C131.5568 16.5767 131.074 16.4591 130.6774 16.224C130.2808 15.9889 129.9575 15.6769 129.7074 15.288C129.4574 14.8991 129.272 14.4424 129.1513 13.9179C129.0306 13.3934 128.9703 12.8327 128.9703 12.2358C128.9703 10.6984 129.2505 9.5861 129.8109 8.8988C130.3713 8.2115 131.143 7.8678 132.1258 7.8678C132.6949 7.8678 133.182 7.9763 133.5872 8.1934C133.9925 8.4104 134.3201 8.7134 134.5701 9.1023C134.8201 9.4911 135.0012 9.9523 135.1133 10.4859C135.2254 11.0195 135.2814 11.6028 135.2814 12.2358C135.2814 15.1297 134.2296 16.5767 132.1258 16.5767ZM145.7748 19.344C145.7748 17.8609 145.7704 16.3732 145.7618 14.881C145.7532 13.3889 145.7489 11.9012 145.7489 10.4181C145.9558 9.7308 146.3309 9.1656 146.874 8.7224C147.4172 8.2793 148.0768 8.0577 148.8527 8.0577C149.7666 8.0577 150.4046 8.329 150.7668 8.8717C151.1289 9.4143 151.3099 10.3005 151.3099 11.5304L151.3099 11.5304L151.3099 19.344L154.9311 19.344L154.9311 10.7437C154.9311 9.568 154.8319 8.5913 154.6336 7.8136C154.4353 7.0358 154.1508 6.4163 153.7801 5.9551C153.4093 5.4939 152.9438 5.1683 152.3833 4.9784C151.8229 4.7885 151.1806 4.6936 150.4564 4.6936C149.2666 4.6936 148.3009 4.9332 147.5595 5.4125C146.818 5.8918 146.2231 6.4661 145.7748 7.1353L145.7748 7.1353L145.3868 7.1353L144.9988 5.1005L142.1536 5.1005L142.1536 19.344L145.7748 19.344ZM163.1483 19.7781C163.8208 19.7781 164.5148 19.6877 165.2304 19.5068C165.946 19.3259 166.5797 19.1089 167.1315 18.8557L167.1315 18.8557L166.3814 16.007C166.071 16.1517 165.7779 16.2557 165.502 16.319C165.2261 16.3823 164.8899 16.4139 164.4933 16.4139C163.8553 16.4139 163.4285 16.1652 163.2129 15.6678C162.9974 15.1704 162.8896 14.352 162.8896 13.2125L162.8896 13.2125L162.8896 8.2748L166.5366 8.2748L166.5366 5.1005L162.8896 5.1005L162.8896 2.1433L159.2685 3.1471L159.2685 5.1005L157.1993 5.1005L157.1993 8.2748L159.2685 8.2748L159.2685 15.383C159.2685 16.9203 159.5789 18.0372 160.1996 18.7336C160.8204 19.4299 161.8033 19.7781 163.1483 19.7781ZM172.8398 19.561C173.9261 19.561 174.8142 19.335 175.5039 18.8828C176.1937 18.4306 176.7627 17.888 177.211 17.255L177.211 17.255L177.5214 17.255L178.1163 19.3711L181.065 19.3711C180.8753 18.7743 180.7373 18.1503 180.6511 17.4991C180.5649 16.848 180.5218 16.1788 180.5218 15.4915C180.5218 14.4786 180.5563 13.52 180.6252 12.6157C180.6942 11.7113 180.7287 10.7979 180.7287 9.8755C180.7287 9.1158 180.6468 8.424 180.483 7.8C180.3192 7.176 180.0476 6.6424 179.6682 6.1993C179.2889 5.7562 178.7759 5.417 178.1292 5.1819C177.4826 4.9468 176.6851 4.8292 175.7367 4.8292C174.5297 4.8292 173.3614 4.9468 172.232 5.1819C171.1025 5.417 170.1498 5.7155 169.3738 6.0772L169.3738 6.0772L170.3309 8.953C170.9344 8.6456 171.6284 8.3878 172.413 8.1798C173.1976 7.9718 174.0037 7.8678 174.8314 7.8678C175.7281 7.8678 176.3402 8.0306 176.6679 8.3562C176.9955 8.6817 177.1593 9.1882 177.1593 9.8755C177.1593 10.1468 177.1334 10.4723 177.0817 10.8522C176.892 10.816 176.5558 10.7572 176.073 10.6758C175.5901 10.5944 175.1073 10.5537 174.6245 10.5537C172.538 10.5537 170.9818 10.9652 169.9558 11.7882C168.9298 12.6111 168.4168 13.8275 168.4168 15.4372C168.4168 16.0341 168.5246 16.5857 168.7401 17.0922C168.9557 17.5986 169.2575 18.0372 169.6454 18.408C170.0334 18.7788 170.499 19.0637 171.0422 19.2626C171.5853 19.4616 172.1845 19.561 172.8398 19.561ZM174.1072 16.5224C173.5037 16.5224 173.0252 16.3597 172.6717 16.0341C172.3182 15.7085 172.1414 15.2202 172.1414 14.569C172.1414 14.0445 172.3656 13.6059 172.8139 13.2532C173.2623 12.9005 173.952 12.7242 174.8832 12.7242C175.0556 12.7242 175.2496 12.7332 175.4651 12.7513C175.6807 12.7694 175.8962 12.7965 176.1118 12.8327C176.3273 12.8689 176.5256 12.905 176.7067 12.9412C176.8877 12.9774 177.0213 13.0136 177.1076 13.0497L177.1076 13.0497L177.1076 14.6776C176.8834 15.1117 176.5299 15.5277 176.0471 15.9256C175.5643 16.3235 174.9176 16.5224 174.1072 16.5224ZM188.1182 19.7781C188.7907 19.7781 189.4417 19.7012 190.071 19.5475C190.7004 19.3937 191.1876 19.2355 191.5324 19.0727L191.5324 19.0727L191.0927 16.1155C190.7996 16.224 190.5452 16.3009 190.3297 16.3461C190.1142 16.3913 189.8857 16.4139 189.6443 16.4139C188.7993 16.4139 188.3769 15.7266 188.3769 14.352L188.3769 14.352L188.3769.3527L184.7557.3527L184.7557 16.5224C184.7557 17.68 185.0446 18.512 185.6222 19.0184C186.1999 19.5249 187.0319 19.7781 188.1182 19.7781Z" transform="translate(48,8)"/></g></svg>