<?xml version="1.0" encoding="UTF-8"?>
<svg width="1280px" height="320px" viewBox="0 0 1280 320" version="1.1" xmlns="http://www.w3.org/2000/svg" xmlns:xlink="http://www.w3.org/1999/xlink">
    <title>preview</title>
    <g id="preview" stroke="none" stroke-width="1" fill="none" fill-rule="evenodd">
        <rect fill="#FFFFFF" x="0" y="0" width="1280" height="320"></rect>
        <g id="Group" transform="translate(340.000000, 85.000000)">
            <g fill-rule="nonzero" id="logo">
                <g>
                    <g id="Logo" fill="#202D39">
                        <path d="M42.8571429,28.5714286 L42.8571429,46.4285714 L57.4390812,46.4289059 C59.1392223,36.2940508 67.9534679,28.5714286 78.5714286,28.5714286 C90.4061018,28.5714286 100,38.1653268 100,50 L100,71.4285714 L78.5714286,71.4285714 C67.9540893,71.4285714 59.140254,63.7068531 57.4393798,53.5728735 L42.8571429,53.5714286 L42.8571429,63.4285714 C42.8571429,67.8468494 39.2754209,71.4285714 34.8571429,71.4285714 L8,71.4285714 C3.581722,71.4285714 5.41083001e-16,67.8468494 0,63.4285714 L0,36.5714286 C-5.41083001e-16,32.1531506 3.581722,28.5714286 8,28.5714286 L42.8571429,28.5714286 L42.8571429,28.5714286 Z M78.5714286,35.7142857 C70.6816464,35.7142857 64.2857143,42.1102179 64.2857143,50 C64.2857143,57.8897821 70.6816464,64.2857143 78.5714286,64.2857143 C86.4612107,64.2857143 92.8571429,57.8897821 92.8571429,50 C92.8571429,42.1102179 86.4612107,35.7142857 78.5714286,35.7142857 Z" id="Line"></path>
                    </g>
                    <g id="vue/horizontal" transform="translate(120.000000, 20.000000)">
                        <path d="M21.3388601,48.6991304 L36.8580311,12.7513043 L27.093886,12.7513043 L20.7568912,31.0643478 L19.786943,36.693913 L18.7523316,36.693913 L17.3944041,31.2 L10.5401036,12.7513043 L-5.32907052e-14,12.7513043 L16.1658031,48.6991304 L21.3388601,48.6991304 Z M52.6806218,49.3773913 C55.3533679,49.3773913 57.7243523,48.7556522 59.7935751,47.5121739 C61.8627979,46.2686957 63.4578238,44.6973913 64.5786528,42.7982609 L64.5786528,42.7982609 L65.2899482,42.7982609 L67.0358549,48.36 L73.6961658,48.36 C73.3512953,46.8226087 73.0818653,45.1043478 72.8878756,43.2052174 C72.693886,41.306087 72.5968912,39.4069565 72.5968912,37.5078261 L72.5968912,37.5078261 L72.5968912,12.7513043 L63.5440415,12.7513043 L63.5440415,35.4730435 C62.9405181,37.0556522 61.9921244,38.3669565 60.6988601,39.4069565 C59.4055959,40.4469565 57.8105699,40.9669565 55.9137824,40.9669565 C53.7152332,40.9669565 52.2279793,40.2886957 51.4520207,38.9321739 C50.6760622,37.5756522 50.2880829,35.4278261 50.2880829,32.4886957 L50.2880829,32.4886957 L50.2880829,12.7513043 L41.2352332,12.7513043 L41.2352332,34.5234783 C41.2352332,37.3269565 41.4831088,39.6782609 41.9788601,41.5773913 C42.4746114,43.4765217 43.2074611,45.0026087 44.1774093,46.1556522 C45.1473575,47.3086957 46.3436269,48.133913 47.7662176,48.6313043 C49.1888083,49.1286957 50.826943,49.3773913 52.6806218,49.3773913 Z M98.1836269,49.3773913 C101.071917,49.3773913 103.776995,48.9591304 106.29886,48.1226087 C108.820725,47.286087 110.814508,46.28 112.280207,45.1043478 L112.280207,45.1043478 L109.176373,39.1356522 C108.314197,39.7686957 107.074819,40.3904348 105.458238,41.0008696 C103.841658,41.6113043 102.020311,41.9165217 99.9941969,41.9165217 C96.6317098,41.9165217 94.2068394,41.1817391 92.7195855,39.7121739 C91.2323316,38.2426087 90.3809326,35.9704348 90.1653886,32.8956522 L90.1653886,32.8956522 L112.797513,32.8956522 C113.056166,31.6747826 113.239378,30.4991304 113.34715,29.3686957 C113.454922,28.2382609 113.508808,27.1982609 113.508808,26.2486957 C113.508808,23.4904348 113.088497,21.1730435 112.247876,19.2965217 C111.407254,17.42 110.297202,15.9278261 108.91772,14.82 C107.538238,13.7121739 105.964767,12.9208696 104.197306,12.446087 C102.429845,11.9713043 100.640829,11.733913 98.8302591,11.733913 C93.2692228,11.733913 88.958342,13.3278261 85.8976166,16.5156522 C82.8368912,19.7034783 81.3065285,24.3947826 81.3065285,30.5895652 C81.3065285,36.4226087 82.664456,41.0121739 85.3803109,44.3582609 C88.0961658,47.7043478 92.3639378,49.3773913 98.1836269,49.3773913 Z M105.102591,27.266087 L90.4887047,27.266087 C90.7042487,24.9147826 91.4586528,22.9817391 92.7519171,21.4669565 C94.0451813,19.9521739 96.0281865,19.1947826 98.7009326,19.1947826 C101.071917,19.1947826 102.774715,19.9182609 103.809326,21.3652174 C104.843938,22.8121739 105.275026,24.7791304 105.102591,27.266087 L105.102591,27.266087 Z M122.671088,57.8556522 L147.760415,3.45913043 L140.906114,0.067826087 L115.946114,54.1930435 L122.671088,57.8556522 Z" id="vue/" fill="#34495E"></path>
                        <path d="M160.349845,48.36 L160.349845,26.4521739 C160.824041,24.5530435 161.783212,23.0269565 163.227358,21.873913 C164.671503,20.7208696 166.255751,20.1443478 167.980104,20.1443478 C170.351088,20.1443478 171.978446,20.8113043 172.862176,22.1452174 C173.745907,23.4791304 174.187772,25.6834783 174.187772,28.7582609 L174.187772,28.7582609 L174.187772,48.36 L183.240622,48.36 L183.240622,26.6556522 C183.240622,23.8069565 183.003523,21.4217391 182.529326,19.5 C182.05513,17.5782609 181.354611,16.0408696 180.427772,14.8878261 C179.500933,13.7347826 178.347772,12.9208696 176.96829,12.446087 C175.588808,11.9713043 173.972228,11.733913 172.118549,11.733913 C169.445803,11.733913 167.236477,12.2313043 165.49057,13.226087 C163.744663,14.2208696 162.289741,15.5095652 161.125803,17.0921739 L161.125803,17.0921739 L160.349845,17.0921739 L160.349845,0.88173913 L151.296995,0.88173913 L151.296995,48.36 L160.349845,48.36 Z M208.310052,49.3773913 C211.025907,49.3773913 213.450777,48.9478261 215.584663,48.0886957 C217.718549,47.2295652 219.518342,45.986087 220.984041,44.3582609 C222.449741,42.7304348 223.57057,40.7521739 224.346528,38.4234783 C225.122487,36.0947826 225.510466,33.4834783 225.510466,30.5895652 C225.510466,27.8765217 225.154819,25.3782609 224.443523,23.0947826 C223.732228,20.8113043 222.665285,18.8217391 221.242694,17.126087 C219.820104,15.4304348 218.031088,14.1078261 215.875648,13.1582609 C213.720207,12.2086957 211.198342,11.733913 208.310052,11.733913 C202.792124,11.733913 198.545907,13.4069565 195.571399,16.7530435 C192.596891,20.0991304 191.109637,24.7113043 191.109637,30.5895652 C191.109637,33.2573913 191.454508,35.7330435 192.144249,38.0165217 C192.83399,40.3 193.890155,42.2895652 195.312746,43.9852174 C196.735337,45.6808696 198.524352,47.0034783 200.679793,47.9530435 C202.835233,48.9026087 205.378653,49.3773913 208.310052,49.3773913 Z M208.310052,41.4417391 C206.887461,41.4417391 205.680415,41.1478261 204.688912,40.56 C203.697409,39.9721739 202.889119,39.1921739 202.264041,38.22 C201.638964,37.2478261 201.175544,36.106087 200.873782,34.7947826 C200.572021,33.4834783 200.42114,32.0817391 200.42114,30.5895652 C200.42114,26.746087 201.121658,23.9652174 202.522694,22.2469565 C203.923731,20.5286957 205.85285,19.6695652 208.310052,19.6695652 C209.732642,19.6695652 210.950466,19.9408696 211.963523,20.4834783 C212.97658,21.026087 213.795648,21.7834783 214.420725,22.7556522 C215.045803,23.7278261 215.498446,24.8808696 215.778653,26.2147826 C216.05886,27.5486957 216.198964,29.0069565 216.198964,30.5895652 C216.198964,37.8243478 213.569326,41.4417391 208.310052,41.4417391 Z M242.432332,48.36 L242.432332,25.773913 C242.820311,24.3269565 243.628601,23.1286957 244.857202,22.1791304 C246.085803,21.2295652 247.648497,20.7547826 249.545285,20.7547826 C250.838549,20.7547826 252.131813,20.9808696 253.425078,21.4330435 L253.425078,21.4330435 L254.718342,12.6834783 C253.209534,12.186087 251.873161,11.9373913 250.709223,11.9373913 C248.855544,11.9373913 247.206632,12.4347826 245.762487,13.4295652 C244.318342,14.4243478 243.165181,15.8486957 242.303005,17.7026087 L242.303005,17.7026087 L241.462383,17.7026087 L240.492435,12.7513043 L233.379482,12.7513043 L233.379482,48.36 L242.432332,48.36 Z M265.561865,9.9026087 C267.415544,9.9026087 268.881244,9.42782609 269.958964,8.47826087 C271.036684,7.52869565 271.575544,6.39826087 271.575544,5.08695652 C271.575544,3.68521739 271.036684,2.48695652 269.958964,1.49217391 C268.881244,0.497391304 267.415544,-1.33226763e-13 265.561865,-1.33226763e-13 C263.751295,-1.33226763e-13 262.350259,0.486086957 261.358756,1.45826087 C260.367254,2.43043478 259.871503,3.64 259.871503,5.08695652 C259.871503,6.39826087 260.367254,7.52869565 261.358756,8.47826087 C262.350259,9.42782609 263.751295,9.9026087 265.561865,9.9026087 Z M270.28228,48.36 L270.28228,12.7513043 L261.22943,12.7513043 L261.22943,48.36 L270.28228,48.36 Z M307.767047,48.36 L307.767047,40.4243478 L289.402694,40.4243478 L293.670466,37.1686957 L293.605803,37.1686957 L307.767047,20.8226087 L307.767047,12.7513043 L279.185907,12.7513043 L279.185907,20.6869565 L297.614922,20.6869565 L293.411813,24.146087 L293.476477,24.146087 L279.185907,40.2886957 L279.185907,48.36 L307.767047,48.36 Z M330.314611,49.3773913 C333.030466,49.3773913 335.455337,48.9478261 337.589223,48.0886957 C339.723109,47.2295652 341.522902,45.986087 342.988601,44.3582609 C344.454301,42.7304348 345.57513,40.7521739 346.351088,38.4234783 C347.127047,36.0947826 347.515026,33.4834783 347.515026,30.5895652 C347.515026,27.8765217 347.159378,25.3782609 346.448083,23.0947826 C345.736788,20.8113043 344.669845,18.8217391 343.247254,17.126087 C341.824663,15.4304348 340.035648,14.1078261 337.880207,13.1582609 C335.724767,12.2086957 333.202902,11.733913 330.314611,11.733913 C324.796684,11.733913 320.550466,13.4069565 317.575959,16.7530435 C314.601451,20.0991304 313.114197,24.7113043 313.114197,30.5895652 C313.114197,33.2573913 313.459067,35.7330435 314.148808,38.0165217 C314.838549,40.3 315.894715,42.2895652 317.317306,43.9852174 C318.739896,45.6808696 320.528912,47.0034783 322.684352,47.9530435 C324.839793,48.9026087 327.383212,49.3773913 330.314611,49.3773913 Z M330.314611,41.4417391 C328.892021,41.4417391 327.684974,41.1478261 326.693472,40.56 C325.701969,39.9721739 324.893679,39.1921739 324.268601,38.22 C323.643523,37.2478261 323.180104,36.106087 322.878342,34.7947826 C322.57658,33.4834783 322.425699,32.0817391 322.425699,30.5895652 C322.425699,26.746087 323.126218,23.9652174 324.527254,22.2469565 C325.92829,20.5286957 327.857409,19.6695652 330.314611,19.6695652 C331.737202,19.6695652 332.955026,19.9408696 333.968083,20.4834783 C334.98114,21.026087 335.800207,21.7834783 336.425285,22.7556522 C337.050363,23.7278261 337.503005,24.8808696 337.783212,26.2147826 C338.06342,27.5486957 338.203523,29.0069565 338.203523,30.5895652 C338.203523,37.8243478 335.573886,41.4417391 330.314611,41.4417391 Z M364.436891,48.36 C364.436891,44.6521739 364.426114,40.9330435 364.40456,37.2026087 C364.383005,33.4721739 364.372228,29.7530435 364.372228,26.0452174 C364.889534,24.3269565 365.82715,22.913913 367.185078,21.806087 C368.543005,20.6982609 370.191917,20.1443478 372.131813,20.1443478 C374.41658,20.1443478 376.011606,20.8226087 376.916891,22.1791304 C377.822176,23.5356522 378.274819,25.7513043 378.274819,28.826087 L378.274819,28.826087 L378.274819,48.36 L387.327668,48.36 L387.327668,26.8591304 C387.327668,23.92 387.079793,21.4782609 386.584041,19.533913 C386.08829,17.5895652 385.376995,16.0408696 384.450155,14.8878261 C383.523316,13.7347826 382.359378,12.9208696 380.958342,12.446087 C379.557306,11.9713043 377.951503,11.733913 376.140933,11.733913 C373.166425,11.733913 370.752332,12.3330435 368.898653,13.5313043 C367.044974,14.7295652 365.55772,16.1652174 364.436891,17.8382609 L364.436891,17.8382609 L363.466943,17.8382609 L362.496995,12.7513043 L355.384041,12.7513043 L355.384041,48.36 L364.436891,48.36 Z M407.870674,49.4452174 C409.551917,49.4452174 411.287047,49.2191304 413.076062,48.7669565 C414.865078,48.3147826 416.449326,47.7721739 417.828808,47.1391304 L417.828808,47.1391304 L415.953575,40.0173913 C415.177617,40.3791304 414.444767,40.6391304 413.755026,40.7973913 C413.065285,40.9556522 412.224663,41.0347826 411.233161,41.0347826 C409.638135,41.0347826 408.571192,40.4130435 408.032332,39.1695652 C407.493472,37.926087 407.224041,35.88 407.224041,33.0313043 L407.224041,33.0313043 L407.224041,20.6869565 L416.341554,20.6869565 L416.341554,12.7513043 L407.224041,12.7513043 L407.224041,5.35826087 L398.171192,7.86782609 L398.171192,12.7513043 L392.998135,12.7513043 L392.998135,20.6869565 L398.171192,20.6869565 L398.171192,38.4573913 C398.171192,42.3008696 398.94715,45.0930435 400.499067,46.833913 C402.050984,48.5747826 404.508187,49.4452174 407.870674,49.4452174 Z M432.099482,48.9026087 C434.815337,48.9026087 437.03544,48.3373913 438.759793,47.2069565 C440.484145,46.0765217 441.906736,44.72 443.027565,43.1373913 L443.027565,43.1373913 L443.803523,43.1373913 L445.290777,48.4278261 L452.662383,48.4278261 C452.188187,46.9356522 451.843316,45.3756522 451.627772,43.7478261 C451.412228,42.12 451.304456,40.4469565 451.304456,38.7286957 C451.304456,36.1965217 451.390674,33.8 451.563109,31.5391304 C451.735544,29.2782609 451.821762,26.9947826 451.821762,24.6886957 C451.821762,22.7895652 451.616995,21.06 451.207461,19.5 C450.797927,17.94 450.118964,16.606087 449.17057,15.4982609 C448.222176,14.3904348 446.939689,13.5426087 445.323109,12.9547826 C443.706528,12.3669565 441.712746,12.0730435 439.341762,12.0730435 C436.324145,12.0730435 433.403523,12.3669565 430.579896,12.9547826 C427.756269,13.5426087 425.374508,14.2886957 423.434611,15.1930435 L423.434611,15.1930435 L425.82715,22.3826087 C427.335959,21.613913 429.071088,20.9695652 431.032539,20.4495652 C432.99399,19.9295652 435.009326,19.6695652 437.078549,19.6695652 C439.320207,19.6695652 440.85057,20.0765217 441.669637,20.8904348 C442.488705,21.7043478 442.898238,22.9704348 442.898238,24.6886957 C442.898238,25.3669565 442.833575,26.1808696 442.704249,27.1304348 C442.230052,27.04 441.38943,26.8930435 440.182383,26.6895652 C438.975337,26.486087 437.76829,26.3843478 436.561244,26.3843478 C431.345078,26.3843478 427.454508,27.4130435 424.889534,29.4704348 C422.32456,31.5278261 421.042073,34.5686957 421.042073,38.5930435 C421.042073,40.0852174 421.311503,41.4643478 421.850363,42.7304348 C422.389223,43.9965217 423.143627,45.0930435 424.113575,46.02 C425.083523,46.9469565 426.247461,47.6591304 427.605389,48.1565217 C428.963316,48.653913 430.461347,48.9026087 432.099482,48.9026087 Z M435.267979,41.306087 C433.759171,41.306087 432.562902,40.8991304 431.679171,40.0852174 C430.79544,39.2713043 430.353575,38.0504348 430.353575,36.4226087 C430.353575,35.1113043 430.91399,34.0147826 432.034819,33.1330435 C433.155648,32.2513043 434.88,31.8104348 437.207876,31.8104348 C437.638964,31.8104348 438.123938,31.8330435 438.662798,31.8782609 C439.201658,31.9234783 439.740518,31.9913043 440.279378,32.0817391 C440.818238,32.1721739 441.31399,32.2626087 441.766632,32.3530435 C442.219275,32.4434783 442.553368,32.533913 442.768912,32.6243478 L442.768912,32.6243478 L442.768912,36.693913 C442.208497,37.7791304 441.324767,38.8191304 440.11772,39.813913 C438.910674,40.8086957 437.294093,41.306087 435.267979,41.306087 Z M470.295544,49.4452174 C471.976788,49.4452174 473.604145,49.2530435 475.177617,48.8686957 C476.751088,48.4843478 477.968912,48.0886957 478.831088,47.6817391 L478.831088,47.6817391 L477.731813,40.2886957 C476.998964,40.56 476.363109,40.7521739 475.824249,40.8652174 C475.285389,40.9782609 474.714197,41.0347826 474.110674,41.0347826 C471.998342,41.0347826 470.942176,39.3165217 470.942176,35.88 L470.942176,35.88 L470.942176,0.88173913 L461.889326,0.88173913 L461.889326,41.306087 C461.889326,44.2 462.611399,46.28 464.055544,47.546087 C465.499689,48.8121739 467.579689,49.4452174 470.295544,49.4452174 Z" id="horizontal" fill="#41B883"></path>
                    </g>
                </g>
            </g>
            <text id="Everything-horizonta" font-family="PTSans-Caption, PT Sans Caption" font-size="36" font-weight="normal" letter-spacing="0.276923077" fill="#34495E">
                <tspan x="18" y="140">Everything horizontal for Vue.js</tspan>
            </text>
        </g>
    </g>
</svg>