<svg xmlns="http://www.w3.org/2000/svg" width="1280" height="320" viewBox="0 0 1280 320"><g fill="none" fill-rule="evenodd"><rect width="1280" height="320" fill="#FFF"/><g><path fill="#202D39" d="M42.8571429,28.5714286 L42.8571429,46.4285714 L57.4390812,46.4289059 C59.1392223,36.2940508 67.9534679,28.5714286 78.5714286,28.5714286 C90.4061018,28.5714286 100,38.1653268 100,50 L100,71.4285714 L78.5714286,71.4285714 C67.9540893,71.4285714 59.140254,63.7068531 57.4393798,53.5728735 L42.8571429,53.5714286 L42.8571429,63.4285714 C42.8571429,67.8468494 39.2754209,71.4285714 34.8571429,71.4285714 L8,71.4285714 C3.581722,71.4285714 5.41083001e-16,67.8468494 0,63.4285714 L0,36.5714286 C-5.41083001e-16,32.1531506 3.581722,28.5714286 8,28.5714286 L42.8571429,28.5714286 L42.8571429,28.5714286 Z M78.5714286,35.7142857 C70.6816464,35.7142857 64.2857143,42.1102179 64.2857143,50 C64.2857143,57.8897821 70.6816464,64.2857143 78.5714286,64.2857143 C86.4612107,64.2857143 92.8571429,57.8897821 92.8571429,50 C92.8571429,42.1102179 86.4612107,35.7142857 78.5714286,35.7142857 Z" transform="translate(340 85)"/><g><path fill="#34495E" d="M21.3388601,48.6991304 L36.8580311,12.7513043 L27.093886,12.7513043 L20.7568912,31.0643478 L19.786943,36.693913 L18.7523316,36.693913 L17.3944041,31.2 L10.5401036,12.7513043 L-5.32907052e-14,12.7513043 L16.1658031,48.6991304 L21.3388601,48.6991304 Z M52.6806218,49.3773913 C55.3533679,49.3773913 57.7243523,48.7556522 59.7935751,47.5121739 C61.8627979,46.2686957 63.4578238,44.6973913 64.5786528,42.7982609 L64.5786528,42.7982609 L65.2899482,42.7982609 L67.0358549,48.36 L73.6961658,48.36 C73.3512953,46.8226087 73.0818653,45.1043478 72.8878756,43.2052174 C72.693886,41.306087 72.5968912,39.4069565 72.5968912,37.5078261 L72.5968912,37.5078261 L72.5968912,12.7513043 L63.5440415,12.7513043 L63.5440415,35.4730435 C62.9405181,37.0556522 61.9921244,38.3669565 60.6988601,39.4069565 C59.4055959,40.4469565 57.8105699,40.9669565 55.9137824,40.9669565 C53.7152332,40.9669565 52.2279793,40.2886957 51.4520207,38.9321739 C50.6760622,37.5756522 50.2880829,35.4278261 50.2880829,32.4886957 L50.2880829,32.4886957 L50.2880829,12.7513043 L41.2352332,12.7513043 L41.2352332,34.5234783 C41.2352332,37.3269565 41.4831088,39.6782609 41.9788601,41.5773913 C42.4746114,43.4765217 43.2074611,45.0026087 44.1774093,46.1556522 C45.1473575,47.3086957 46.3436269,48.133913 47.7662176,48.6313043 C49.1888083,49.1286957 50.826943,49.3773913 52.6806218,49.3773913 Z M98.1836269,49.3773913 C101.071917,49.3773913 103.776995,48.9591304 106.29886,48.1226087 C108.820725,47.286087 110.814508,46.28 112.280207,45.1043478 L112.280207,45.1043478 L109.176373,39.1356522 C108.314197,39.7686957 107.074819,40.3904348 105.458238,41.0008696 C103.841658,41.6113043 102.020311,41.9165217 99.9941969,41.9165217 C96.6317098,41.9165217 94.2068394,41.1817391 92.7195855,39.7121739 C91.2323316,38.2426087 90.3809326,35.9704348 90.1653886,32.8956522 L90.1653886,32.8956522 L112.797513,32.8956522 C113.056166,31.6747826 113.239378,30.4991304 113.34715,29.3686957 C113.454922,28.2382609 113.508808,27.1982609 113.508808,26.2486957 C113.508808,23.4904348 113.088497,21.1730435 112.247876,19.2965217 C111.407254,17.42 110.297202,15.9278261 108.91772,14.82 C107.538238,13.7121739 105.964767,12.9208696 104.197306,12.446087 C102.429845,11.9713043 100.640829,11.733913 98.8302591,11.733913 C93.2692228,11.733913 88.958342,13.3278261 85.8976166,16.5156522 C82.8368912,19.7034783 81.3065285,24.3947826 81.3065285,30.5895652 C81.3065285,36.4226087 82.664456,41.0121739 85.3803109,44.3582609 C88.0961658,47.7043478 92.3639378,49.3773913 98.1836269,49.3773913 Z M105.102591,27.266087 L90.4887047,27.266087 C90.7042487,24.9147826 91.4586528,22.9817391 92.7519171,21.4669565 C94.0451813,19.9521739 96.0281865,19.1947826 98.7009326,19.1947826 C101.071917,19.1947826 102.774715,19.9182609 103.809326,21.3652174 C104.843938,22.8121739 105.275026,24.7791304 105.102591,27.266087 L105.102591,27.266087 Z M122.671088,57.8556522 L147.760415,3.45913043 L140.906114,0.067826087 L115.946114,54.1930435 L122.671088,57.8556522 Z" transform="translate(340 85) translate(120 20)"/><path fill="#41B883" d="M160.349845,48.36 L160.349845,26.4521739 C160.824041,24.5530435 161.783212,23.0269565 163.227358,21.873913 C164.671503,20.7208696 166.255751,20.1443478 167.980104,20.1443478 C170.351088,20.1443478 171.978446,20.8113043 172.862176,22.1452174 C173.745907,23.4791304 174.187772,25.6834783 174.187772,28.7582609 L174.187772,28.7582609 L174.187772,48.36 L183.240622,48.36 L183.240622,26.6556522 C183.240622,23.8069565 183.003523,21.4217391 182.529326,19.5 C182.05513,17.5782609 181.354611,16.0408696 180.427772,14.8878261 C179.500933,13.7347826 178.347772,12.9208696 176.96829,12.446087 C175.588808,11.9713043 173.972228,11.733913 172.118549,11.733913 C169.445803,11.733913 167.236477,12.2313043 165.49057,13.226087 C163.744663,14.2208696 162.289741,15.5095652 161.125803,17.0921739 L161.125803,17.0921739 L160.349845,17.0921739 L160.349845,0.88173913 L151.296995,0.88173913 L151.296995,48.36 L160.349845,48.36 Z M208.310052,49.3773913 C211.025907,49.3773913 213.450777,48.9478261 215.584663,48.0886957 C217.718549,47.2295652 219.518342,45.986087 220.984041,44.3582609 C222.449741,42.7304348 223.57057,40.7521739 224.346528,38.4234783 C225.122487,36.0947826 225.510466,33.4834783 225.510466,30.5895652 C225.510466,27.8765217 225.154819,25.3782609 224.443523,23.0947826 C223.732228,20.8113043 222.665285,18.8217391 221.242694,17.126087 C219.820104,15.4304348 218.031088,14.1078261 215.875648,13.1582609 C213.720207,12.2086957 211.198342,11.733913 208.310052,11.733913 C202.792124,11.733913 198.545907,13.4069565 195.571399,16.7530435 C192.596891,20.0991304 191.109637,24.7113043 191.109637,30.5895652 C191.109637,33.2573913 191.454508,35.7330435 192.144249,38.0165217 C192.83399,40.3 193.890155,42.2895652 195.312746,43.9852174 C196.735337,45.6808696 198.524352,47.0034783 200.679793,47.9530435 C202.835233,48.9026087 205.378653,49.3773913 208.310052,49.3773913 Z M208.310052,41.4417391 C206.887461,41.4417391 205.680415,41.1478261 204.688912,40.56 C203.697409,39.9721739 202.889119,39.1921739 202.264041,38.22 C201.638964,37.2478261 201.175544,36.106087 200.873782,34.7947826 C200.572021,33.4834783 200.42114,32.0817391 200.42114,30.5895652 C200.42114,26.746087 201.121658,23.9652174 202.522694,22.2469565 C203.923731,20.5286957 205.85285,19.6695652 208.310052,19.6695652 C209.732642,19.6695652 210.950466,19.9408696 211.963523,20.4834783 C212.97658,21.026087 213.795648,21.7834783 214.420725,22.7556522 C215.045803,23.7278261 215.498446,24.8808696 215.778653,26.2147826 C216.05886,27.5486957 216.198964,29.0069565 216.198964,30.5895652 C216.198964,37.8243478 213.569326,41.4417391 208.310052,41.4417391 Z M242.432332,48.36 L242.432332,25.773913 C242.820311,24.3269565 243.628601,23.1286957 244.857202,22.1791304 C246.085803,21.2295652 247.648497,20.7547826 249.545285,20.7547826 C250.838549,20.7547826 252.131813,20.9808696 253.425078,21.4330435 L253.425078,21.4330435 L254.718342,12.6834783 C253.209534,12.186087 251.873161,11.9373913 250.709223,11.9373913 C248.855544,11.9373913 247.206632,12.4347826 245.762487,13.4295652 C244.318342,14.4243478 243.165181,15.8486957 242.303005,17.7026087 L242.303005,17.7026087 L241.462383,17.7026087 L240.492435,12.7513043 L233.379482,12.7513043 L233.379482,48.36 L242.432332,48.36 Z M265.561865,9.9026087 C267.415544,9.9026087 268.881244,9.42782609 269.958964,8.47826087 C271.036684,7.52869565 271.575544,6.39826087 271.575544,5.08695652 C271.575544,3.68521739 271.036684,2.48695652 269.958964,1.49217391 C268.881244,0.497391304 267.415544,-1.33226763e-13 265.561865,-1.33226763e-13 C263.751295,-1.33226763e-13 262.350259,0.486086957 261.358756,1.45826087 C260.367254,2.43043478 259.871503,3.64 259.871503,5.08695652 C259.871503,6.39826087 260.367254,7.52869565 261.358756,8.47826087 C262.350259,9.42782609 263.751295,9.9026087 265.561865,9.9026087 Z M270.28228,48.36 L270.28228,12.7513043 L261.22943,12.7513043 L261.22943,48.36 L270.28228,48.36 Z M307.767047,48.36 L307.767047,40.4243478 L289.402694,40.4243478 L293.670466,37.1686957 L293.605803,37.1686957 L307.767047,20.8226087 L307.767047,12.7513043 L279.185907,12.7513043 L279.185907,20.6869565 L297.614922,20.6869565 L293.411813,24.146087 L293.476477,24.146087 L279.185907,40.2886957 L279.185907,48.36 L307.767047,48.36 Z M330.314611,49.3773913 C333.030466,49.3773913 335.455337,48.9478261 337.589223,48.0886957 C339.723109,47.2295652 341.522902,45.986087 342.988601,44.3582609 C344.454301,42.7304348 345.57513,40.7521739 346.351088,38.4234783 C347.127047,36.0947826 347.515026,33.4834783 347.515026,30.5895652 C347.515026,27.8765217 347.159378,25.3782609 346.448083,23.0947826 C345.736788,20.8113043 344.669845,18.8217391 343.247254,17.126087 C341.824663,15.4304348 340.035648,14.1078261 337.880207,13.1582609 C335.724767,12.2086957 333.202902,11.733913 330.314611,11.733913 C324.796684,11.733913 320.550466,13.4069565 317.575959,16.7530435 C314.601451,20.0991304 313.114197,24.7113043 313.114197,30.5895652 C313.114197,33.2573913 313.459067,35.7330435 314.148808,38.0165217 C314.838549,40.3 315.894715,42.2895652 317.317306,43.9852174 C318.739896,45.6808696 320.528912,47.0034783 322.684352,47.9530435 C324.839793,48.9026087 327.383212,49.3773913 330.314611,49.3773913 Z M330.314611,41.4417391 C328.892021,41.4417391 327.684974,41.1478261 326.693472,40.56 C325.701969,39.9721739 324.893679,39.1921739 324.268601,38.22 C323.643523,37.2478261 323.180104,36.106087 322.878342,34.7947826 C322.57658,33.4834783 322.425699,32.0817391 322.425699,30.5895652 C322.425699,26.746087 323.126218,23.9652174 324.527254,22.2469565 C325.92829,20.5286957 327.857409,19.6695652 330.314611,19.6695652 C331.737202,19.6695652 332.955026,19.9408696 333.968083,20.4834783 C334.98114,21.026087 335.800207,21.7834783 336.425285,22.7556522 C337.050363,23.7278261 337.503005,24.8808696 337.783212,26.2147826 C338.06342,27.5486957 338.203523,29.0069565 338.203523,30.5895652 C338.203523,37.8243478 335.573886,41.4417391 330.314611,41.4417391 Z M364.436891,48.36 C364.436891,44.6521739 364.426114,40.9330435 364.40456,37.2026087 C364.383005,33.4721739 364.372228,29.7530435 364.372228,26.0452174 C364.889534,24.3269565 365.82715,22.913913 367.185078,21.806087 C368.543005,20.6982609 370.191917,20.1443478 372.131813,20.1443478 C374.41658,20.1443478 376.011606,20.8226087 376.916891,22.1791304 C377.822176,23.5356522 378.274819,25.7513043 378.274819,28.826087 L378.274819,28.826087 L378.274819,48.36 L387.327668,48.36 L387.327668,26.8591304 C387.327668,23.92 387.079793,21.4782609 386.584041,19.533913 C386.08829,17.5895652 385.376995,16.0408696 384.450155,14.8878261 C383.523316,13.7347826 382.359378,12.9208696 380.958342,12.446087 C379.557306,11.9713043 377.951503,11.733913 376.140933,11.733913 C373.166425,11.733913 370.752332,12.3330435 368.898653,13.5313043 C367.044974,14.7295652 365.55772,16.1652174 364.436891,17.8382609 L364.436891,17.8382609 L363.466943,17.8382609 L362.496995,12.7513043 L355.384041,12.7513043 L355.384041,48.36 L364.436891,48.36 Z M407.870674,49.4452174 C409.551917,49.4452174 411.287047,49.2191304 413.076062,48.7669565 C414.865078,48.3147826 416.449326,47.7721739 417.828808,47.1391304 L417.828808,47.1391304 L415.953575,40.0173913 C415.177617,40.3791304 414.444767,40.6391304 413.755026,40.7973913 C413.065285,40.9556522 412.224663,41.0347826 411.233161,41.0347826 C409.638135,41.0347826 408.571192,40.4130435 408.032332,39.1695652 C407.493472,37.926087 407.224041,35.88 407.224041,33.0313043 L407.224041,33.0313043 L407.224041,20.6869565 L416.341554,20.6869565 L416.341554,12.7513043 L407.224041,12.7513043 L407.224041,5.35826087 L398.171192,7.86782609 L398.171192,12.7513043 L392.998135,12.7513043 L392.998135,20.6869565 L398.171192,20.6869565 L398.171192,38.4573913 C398.171192,42.3008696 398.94715,45.0930435 400.499067,46.833913 C402.050984,48.5747826 404.508187,49.4452174 407.870674,49.4452174 Z M432.099482,48.9026087 C434.815337,48.9026087 437.03544,48.3373913 438.759793,47.2069565 C440.484145,46.0765217 441.906736,44.72 443.027565,43.1373913 L443.027565,43.1373913 L443.803523,43.1373913 L445.290777,48.4278261 L452.662383,48.4278261 C452.188187,46.9356522 451.843316,45.3756522 451.627772,43.7478261 C451.412228,42.12 451.304456,40.4469565 451.304456,38.7286957 C451.304456,36.1965217 451.390674,33.8 451.563109,31.5391304 C451.735544,29.2782609 451.821762,26.9947826 451.821762,24.6886957 C451.821762,22.7895652 451.616995,21.06 451.207461,19.5 C450.797927,17.94 450.118964,16.606087 449.17057,15.4982609 C448.222176,14.3904348 446.939689,13.5426087 445.323109,12.9547826 C443.706528,12.3669565 441.712746,12.0730435 439.341762,12.0730435 C436.324145,12.0730435 433.403523,12.3669565 430.579896,12.9547826 C427.756269,13.5426087 425.374508,14.2886957 423.434611,15.1930435 L423.434611,15.1930435 L425.82715,22.3826087 C427.335959,21.613913 429.071088,20.9695652 431.032539,20.4495652 C432.99399,19.9295652 435.009326,19.6695652 437.078549,19.6695652 C439.320207,19.6695652 440.85057,20.0765217 441.669637,20.8904348 C442.488705,21.7043478 442.898238,22.9704348 442.898238,24.6886957 C442.898238,25.3669565 442.833575,26.1808696 442.704249,27.1304348 C442.230052,27.04 441.38943,26.8930435 440.182383,26.6895652 C438.975337,26.486087 437.76829,26.3843478 436.561244,26.3843478 C431.345078,26.3843478 427.454508,27.4130435 424.889534,29.4704348 C422.32456,31.5278261 421.042073,34.5686957 421.042073,38.5930435 C421.042073,40.0852174 421.311503,41.4643478 421.850363,42.7304348 C422.389223,43.9965217 423.143627,45.0930435 424.113575,46.02 C425.083523,46.9469565 426.247461,47.6591304 427.605389,48.1565217 C428.963316,48.653913 430.461347,48.9026087 432.099482,48.9026087 Z M435.267979,41.306087 C433.759171,41.306087 432.562902,40.8991304 431.679171,40.0852174 C430.79544,39.2713043 430.353575,38.0504348 430.353575,36.4226087 C430.353575,35.1113043 430.91399,34.0147826 432.034819,33.1330435 C433.155648,32.2513043 434.88,31.8104348 437.207876,31.8104348 C437.638964,31.8104348 438.123938,31.8330435 438.662798,31.8782609 C439.201658,31.9234783 439.740518,31.9913043 440.279378,32.0817391 C440.818238,32.1721739 441.31399,32.2626087 441.766632,32.3530435 C442.219275,32.4434783 442.553368,32.533913 442.768912,32.6243478 L442.768912,32.6243478 L442.768912,36.693913 C442.208497,37.7791304 441.324767,38.8191304 440.11772,39.813913 C438.910674,40.8086957 437.294093,41.306087 435.267979,41.306087 Z M470.295544,49.4452174 C471.976788,49.4452174 473.604145,49.2530435 475.177617,48.8686957 C476.751088,48.4843478 477.968912,48.0886957 478.831088,47.6817391 L478.831088,47.6817391 L477.731813,40.2886957 C476.998964,40.56 476.363109,40.7521739 475.824249,40.8652174 C475.285389,40.9782609 474.714197,41.0347826 474.110674,41.0347826 C471.998342,41.0347826 470.942176,39.3165217 470.942176,35.88 L470.942176,35.88 L470.942176,0.88173913 L461.889326,0.88173913 L461.889326,41.306087 C461.889326,44.2 462.611399,46.28 464.055544,47.546087 C465.499689,48.8121739 467.579689,49.4452174 470.295544,49.4452174 Z" transform="translate(340 85) translate(120 20)"/></g><path fill="#34495E" d="M36.612,140 L36.612,136.904 L24.804,136.904 L24.804,128.66 L35.424,128.66 L35.424,125.564 L24.804,125.564 L24.804,117.896 L36.432,117.896 L36.432,114.8 L21.204,114.8 L21.204,140 L36.612,140 Z M49.7769231,140.396 L58.5969231,121.1 L54.9969231,121.1 L50.4969231,131.9 L49.3089231,135.86 L48.0489231,131.972 L43.2249231,121.1 L39.3369231,121.1 L48.3369231,140.396 L49.7769231,140.396 Z M70.2138462,140.504 C71.6778462,140.504 73.0338462,140.318 74.2818462,139.946 C75.5298462,139.574 76.5738462,139.076 77.4138462,138.452 L77.4138462,138.452 L76.1538462,135.932 C75.6498462,136.412 74.9418462,136.826 74.0298462,137.174 C73.1178462,137.522 72.1578462,137.696 71.1498462,137.696 C68.7258462,137.696 67.0098462,137.132 66.0018462,136.004 C64.9938462,134.876 64.4658462,133.208 64.4178462,131 L64.4178462,131 L77.9178462,131 C77.9898462,130.52 78.0378462,130.028 78.0618462,129.524 C78.0858462,129.02 78.0978462,128.576 78.0978462,128.192 C78.0978462,126.608 77.8638462,125.324 77.3958462,124.34 C76.9278462,123.356 76.3218462,122.582 75.5778462,122.018 C74.8338462,121.454 73.9938462,121.07 73.0578462,120.866 C72.1218462,120.662 71.1858462,120.56 70.2498462,120.56 C67.2978462,120.56 65.0238462,121.418 63.4278462,123.134 C61.8318462,124.85 61.0338462,127.328 61.0338462,130.568 C61.0338462,132.08 61.2138462,133.448 61.5738462,134.672 C61.9338462,135.896 62.4858462,136.94 63.2298462,137.804 C63.9738462,138.668 64.9278462,139.334 66.0918462,139.802 C67.2558462,140.27 68.6298462,140.504 70.2138462,140.504 Z M74.9298462,128.624 L64.5618462,128.624 C64.7298462,126.704 65.3058462,125.348 66.2898462,124.556 C67.2738462,123.764 68.6058462,123.368 70.2858462,123.368 C71.7738462,123.368 72.9318462,123.764 73.7598462,124.556 C74.5878462,125.348 74.9778462,126.704 74.9298462,128.624 L74.9298462,128.624 Z M87.1587692,140 L87.1587692,127.184 C87.3267692,126.2 87.7647692,125.384 88.4727692,124.736 C89.1807692,124.088 90.1707692,123.764 91.4427692,123.764 C91.7787692,123.764 92.1387692,123.812 92.5227692,123.908 C92.9067692,124.004 93.3027692,124.112 93.7107692,124.232 L93.7107692,124.232 L94.3587692,121.064 C93.9027692,120.92 93.4467692,120.818 92.9907692,120.758 C92.5347692,120.698 92.1387692,120.668 91.8027692,120.668 C90.6987692,120.668 89.7807692,120.926 89.0487692,121.442 C88.3167692,121.958 87.6747692,122.684 87.1227692,123.62 L87.1227692,123.62 L86.7987692,123.62 L86.1507692,121.1 L83.8467692,121.1 L83.8467692,140 L87.1587692,140 Z M100.107692,147.38 C100.995692,147.38 101.781692,147.122 102.465692,146.606 C103.149692,146.09 103.773692,145.406 104.337692,144.554 C104.901692,143.702 105.417692,142.724 105.885692,141.62 C106.353692,140.516 106.815692,139.376 107.271692,138.2 L107.271692,138.2 L113.463692,121.1 L110.079692,121.1 L106.155692,133.016 L105.255692,136.688 L104.787692,136.688 L103.671692,133.052 L98.8476923,121.1 L94.9236923,121.1 L103.383692,140.108 C103.143692,140.996 102.885692,141.722 102.609692,142.286 C102.333692,142.85 102.027692,143.288 101.691692,143.6 C101.355692,143.912 100.989692,144.128 100.593692,144.248 C100.197692,144.368 99.7596923,144.428 99.2796923,144.428 C98.9196923,144.428 98.5596923,144.368 98.1996923,144.248 L98.1996923,144.248 L97.6596923,147.056 C98.3316923,147.272 99.1476923,147.38 100.107692,147.38 Z M122.740615,140.504 C123.748615,140.504 124.690615,140.39 125.566615,140.162 C126.442615,139.934 127.264615,139.652 128.032615,139.316 L128.032615,139.316 L127.276615,136.976 C126.652615,137.192 126.094615,137.366 125.602615,137.498 C125.110615,137.63 124.564615,137.696 123.964615,137.696 C123.028615,137.696 122.368615,137.384 121.984615,136.76 C121.600615,136.136 121.408615,135.068 121.408615,133.556 L121.408615,133.556 L121.408615,123.908 L127.096615,123.908 L127.096615,121.1 L121.408615,121.1 L121.408615,116.42 L118.096615,117.284 L118.096615,121.1 L114.892615,121.1 L114.892615,123.908 L118.096615,123.908 L118.096615,134.672 C118.096615,136.736 118.450615,138.224 119.158615,139.136 C119.866615,140.048 121.060615,140.504 122.740615,140.504 Z M135.365538,140 L135.365538,127.94 C135.533538,127.268 135.797538,126.662 136.157538,126.122 C136.517538,125.582 136.949538,125.12 137.453538,124.736 C137.957538,124.352 138.509538,124.052 139.109538,123.836 C139.709538,123.62 140.321538,123.512 140.945538,123.512 C141.833538,123.512 142.571538,123.632 143.159538,123.872 C143.747538,124.112 144.215538,124.484 144.563538,124.988 C144.911538,125.492 145.151538,126.122 145.283538,126.878 C145.415538,127.634 145.481538,128.528 145.481538,129.56 L145.481538,129.56 L145.481538,140 L148.793538,140 L148.793538,128.84 C148.793538,127.232 148.661538,125.894 148.397538,124.826 C148.133538,123.758 147.725538,122.906 147.173538,122.27 C146.621538,121.634 145.925538,121.19 145.085538,120.938 C144.245538,120.686 143.249538,120.56 142.097538,120.56 C140.609538,120.56 139.361538,120.824 138.353538,121.352 C137.345538,121.88 136.481538,122.576 135.761538,123.44 L135.761538,123.44 L135.365538,123.44 L135.365538,114.8 L132.053538,114.8 L132.053538,140 L135.365538,140 Z M157.998462,118.688 C158.694462,118.688 159.270462,118.478 159.726462,118.058 C160.182462,117.638 160.410462,117.152 160.410462,116.6 C160.410462,116.048 160.182462,115.55 159.726462,115.106 C159.270462,114.662 158.694462,114.44 157.998462,114.44 C157.302462,114.44 156.738462,114.662 156.306462,115.106 C155.874462,115.55 155.658462,116.048 155.658462,116.6 C155.658462,117.152 155.874462,117.638 156.306462,118.058 C156.738462,118.478 157.302462,118.688 157.998462,118.688 Z M159.654462,140 L159.654462,121.1 L156.342462,121.1 L156.342462,140 L159.654462,140 Z M170.407385,140 L170.407385,127.544 C170.791385,126.368 171.469385,125.402 172.441385,124.646 C173.413385,123.89 174.631385,123.512 176.095385,123.512 C177.751385,123.512 178.903385,124.016 179.551385,125.024 C180.199385,126.032 180.523385,127.544 180.523385,129.56 L180.523385,129.56 L180.523385,140 L183.835385,140 L183.835385,128.876 C183.835385,127.244 183.691385,125.894 183.403385,124.826 C183.115385,123.758 182.689385,122.906 182.125385,122.27 C181.561385,121.634 180.859385,121.19 180.019385,120.938 C179.179385,120.686 178.207385,120.56 177.103385,120.56 C175.543385,120.56 174.205385,120.854 173.089385,121.442 C171.973385,122.03 171.067385,122.756 170.371385,123.62 L170.371385,123.62 L170.047385,123.62 L169.399385,121.1 L167.095385,121.1 L167.095385,140 L170.407385,140 Z M198.044308,147.452 C200.852308,147.452 202.982308,146.846 204.434308,145.634 C205.886308,144.422 206.612308,142.58 206.612308,140.108 L206.612308,140.108 L206.612308,121.64 C205.700308,121.328 204.674308,121.076 203.534308,120.884 C202.394308,120.692 201.032308,120.596 199.448308,120.596 C196.136308,120.596 193.640308,121.472 191.960308,123.224 C190.280308,124.976 189.440308,127.472 189.440308,130.712 C189.440308,134 190.088308,136.382 191.384308,137.858 C192.680308,139.334 194.696308,140.072 197.432308,140.072 C198.800308,140.072 199.964308,139.88 200.924308,139.496 C201.884308,139.112 202.556308,138.608 202.940308,137.984 L202.940308,137.984 L203.336308,137.984 L203.336308,139.316 C203.336308,140.252 203.252308,141.056 203.084308,141.728 C202.916308,142.4 202.604308,142.952 202.148308,143.384 C201.692308,143.816 201.080308,144.134 200.312308,144.338 C199.544308,144.542 198.572308,144.644 197.396308,144.644 C196.964308,144.644 196.514308,144.608 196.046308,144.536 C195.578308,144.464 195.116308,144.368 194.660308,144.248 C194.204308,144.128 193.772308,143.99 193.364308,143.834 C192.956308,143.678 192.596308,143.528 192.284308,143.384 L192.284308,143.384 L191.492308,146.372 C192.212308,146.708 193.076308,146.972 194.084308,147.164 C195.092308,147.356 196.412308,147.452 198.044308,147.452 Z M198.152308,137.264 C196.256308,137.264 194.918308,136.688 194.138308,135.536 C193.358308,134.384 192.968308,132.752 192.968308,130.64 C192.968308,128.192 193.496308,126.374 194.552308,125.186 C195.608308,123.998 197.072308,123.404 198.944308,123.404 C199.856308,123.404 200.672308,123.452 201.392308,123.548 C202.112308,123.644 202.748308,123.776 203.300308,123.944 L203.300308,123.944 L203.300308,133.232 C202.988308,134.432 202.418308,135.404 201.590308,136.148 C200.762308,136.892 199.616308,137.264 198.152308,137.264 Z M227.362154,140 L227.362154,127.94 C227.530154,127.268 227.794154,126.662 228.154154,126.122 C228.514154,125.582 228.946154,125.12 229.450154,124.736 C229.954154,124.352 230.506154,124.052 231.106154,123.836 C231.706154,123.62 232.318154,123.512 232.942154,123.512 C233.830154,123.512 234.568154,123.632 235.156154,123.872 C235.744154,124.112 236.212154,124.484 236.560154,124.988 C236.908154,125.492 237.148154,126.122 237.280154,126.878 C237.412154,127.634 237.478154,128.528 237.478154,129.56 L237.478154,129.56 L237.478154,140 L240.790154,140 L240.790154,128.84 C240.790154,127.232 240.658154,125.894 240.394154,124.826 C240.130154,123.758 239.722154,122.906 239.170154,122.27 C238.618154,121.634 237.922154,121.19 237.082154,120.938 C236.242154,120.686 235.246154,120.56 234.094154,120.56 C232.606154,120.56 231.358154,120.824 230.350154,121.352 C229.342154,121.88 228.478154,122.576 227.758154,123.44 L227.758154,123.44 L227.362154,123.44 L227.362154,114.8 L224.050154,114.8 L224.050154,140 L227.362154,140 Z M255.611077,140.504 C257.051077,140.504 258.341077,140.276 259.481077,139.82 C260.621077,139.364 261.581077,138.704 262.361077,137.84 C263.141077,136.976 263.741077,135.932 264.161077,134.708 C264.581077,133.484 264.791077,132.104 264.791077,130.568 C264.791077,129.128 264.605077,127.802 264.233077,126.59 C263.861077,125.378 263.291077,124.322 262.523077,123.422 C261.755077,122.522 260.795077,121.82 259.643077,121.316 C258.491077,120.812 257.147077,120.56 255.611077,120.56 C254.147077,120.56 252.845077,120.788 251.705077,121.244 C250.565077,121.7 249.599077,122.36 248.807077,123.224 C248.015077,124.088 247.415077,125.138 247.007077,126.374 C246.599077,127.61 246.395077,129.008 246.395077,130.568 C246.395077,131.984 246.581077,133.298 246.953077,134.51 C247.325077,135.722 247.889077,136.772 248.645077,137.66 C249.401077,138.548 250.355077,139.244 251.507077,139.748 C252.659077,140.252 254.027077,140.504 255.611077,140.504 Z M255.647077,137.696 C254.591077,137.696 253.703077,137.492 252.983077,137.084 C252.263077,136.676 251.675077,136.136 251.219077,135.464 C250.763077,134.792 250.433077,134.03 250.229077,133.178 C250.025077,132.326 249.923077,131.456 249.923077,130.568 C249.923077,128.144 250.409077,126.338 251.381077,125.15 C252.353077,123.962 253.775077,123.368 255.647077,123.368 C256.655077,123.368 257.519077,123.572 258.239077,123.98 C258.959077,124.388 259.541077,124.922 259.985077,125.582 C260.429077,126.242 260.753077,127.004 260.957077,127.868 C261.161077,128.732 261.263077,129.632 261.263077,130.568 C261.263077,135.32 259.391077,137.696 255.647077,137.696 Z M273.708,140 L273.708,127.184 C273.876,126.2 274.314,125.384 275.022,124.736 C275.73,124.088 276.72,123.764 277.992,123.764 C278.328,123.764 278.688,123.812 279.072,123.908 C279.456,124.004 279.852,124.112 280.26,124.232 L280.26,124.232 L280.908,121.064 C280.452,120.92 279.996,120.818 279.54,120.758 C279.084,120.698 278.688,120.668 278.352,120.668 C277.248,120.668 276.33,120.926 275.598,121.442 C274.866,121.958 274.224,122.684 273.672,123.62 L273.672,123.62 L273.348,123.62 L272.7,121.1 L270.396,121.1 L270.396,140 L273.708,140 Z M286.944923,118.688 C287.640923,118.688 288.216923,118.478 288.672923,118.058 C289.128923,117.638 289.356923,117.152 289.356923,116.6 C289.356923,116.048 289.128923,115.55 288.672923,115.106 C288.216923,114.662 287.640923,114.44 286.944923,114.44 C286.248923,114.44 285.684923,114.662 285.252923,115.106 C284.820923,115.55 284.604923,116.048 284.604923,116.6 C284.604923,117.152 284.820923,117.638 285.252923,118.058 C285.684923,118.478 286.248923,118.688 286.944923,118.688 Z M288.600923,140 L288.600923,121.1 L285.288923,121.1 L285.288923,140 L288.600923,140 Z M309.469846,140 L309.469846,137.192 L297.517846,137.192 L300.037846,135.428 L309.469846,123.944 L309.469846,121.1 L294.601846,121.1 L294.601846,123.908 L306.445846,123.908 L303.925846,125.78 L294.601846,137.156 L294.601846,140 L309.469846,140 Z M322.490769,140.504 C323.930769,140.504 325.220769,140.276 326.360769,139.82 C327.500769,139.364 328.460769,138.704 329.240769,137.84 C330.020769,136.976 330.620769,135.932 331.040769,134.708 C331.460769,133.484 331.670769,132.104 331.670769,130.568 C331.670769,129.128 331.484769,127.802 331.112769,126.59 C330.740769,125.378 330.170769,124.322 329.402769,123.422 C328.634769,122.522 327.674769,121.82 326.522769,121.316 C325.370769,120.812 324.026769,120.56 322.490769,120.56 C321.026769,120.56 319.724769,120.788 318.584769,121.244 C317.444769,121.7 316.478769,122.36 315.686769,123.224 C314.894769,124.088 314.294769,125.138 313.886769,126.374 C313.478769,127.61 313.274769,129.008 313.274769,130.568 C313.274769,131.984 313.460769,133.298 313.832769,134.51 C314.204769,135.722 314.768769,136.772 315.524769,137.66 C316.280769,138.548 317.234769,139.244 318.386769,139.748 C319.538769,140.252 320.906769,140.504 322.490769,140.504 Z M322.526769,137.696 C321.470769,137.696 320.582769,137.492 319.862769,137.084 C319.142769,136.676 318.554769,136.136 318.098769,135.464 C317.642769,134.792 317.312769,134.03 317.108769,133.178 C316.904769,132.326 316.802769,131.456 316.802769,130.568 C316.802769,128.144 317.288769,126.338 318.260769,125.15 C319.232769,123.962 320.654769,123.368 322.526769,123.368 C323.534769,123.368 324.398769,123.572 325.118769,123.98 C325.838769,124.388 326.420769,124.922 326.864769,125.582 C327.308769,126.242 327.632769,127.004 327.836769,127.868 C328.040769,128.732 328.142769,129.632 328.142769,130.568 C328.142769,135.32 326.270769,137.696 322.526769,137.696 Z M340.587692,140 L340.587692,127.544 C340.971692,126.368 341.649692,125.402 342.621692,124.646 C343.593692,123.89 344.811692,123.512 346.275692,123.512 C347.931692,123.512 349.083692,124.016 349.731692,125.024 C350.379692,126.032 350.703692,127.544 350.703692,129.56 L350.703692,129.56 L350.703692,140 L354.015692,140 L354.015692,128.876 C354.015692,127.244 353.871692,125.894 353.583692,124.826 C353.295692,123.758 352.869692,122.906 352.305692,122.27 C351.741692,121.634 351.039692,121.19 350.199692,120.938 C349.359692,120.686 348.387692,120.56 347.283692,120.56 C345.723692,120.56 344.385692,120.854 343.269692,121.442 C342.153692,122.03 341.247692,122.756 340.551692,123.62 L340.551692,123.62 L340.227692,123.62 L339.579692,121.1 L337.275692,121.1 L337.275692,140 L340.587692,140 Z M366.172615,140.504 C367.180615,140.504 368.122615,140.39 368.998615,140.162 C369.874615,139.934 370.696615,139.652 371.464615,139.316 L371.464615,139.316 L370.708615,136.976 C370.084615,137.192 369.526615,137.366 369.034615,137.498 C368.542615,137.63 367.996615,137.696 367.396615,137.696 C366.460615,137.696 365.800615,137.384 365.416615,136.76 C365.032615,136.136 364.840615,135.068 364.840615,133.556 L364.840615,133.556 L364.840615,123.908 L370.528615,123.908 L370.528615,121.1 L364.840615,121.1 L364.840615,116.42 L361.528615,117.284 L361.528615,121.1 L358.324615,121.1 L358.324615,123.908 L361.528615,123.908 L361.528615,134.672 C361.528615,136.736 361.882615,138.224 362.590615,139.136 C363.298615,140.048 364.492615,140.504 366.172615,140.504 Z M380.057538,140.288 C380.945538,140.288 381.731538,140.192 382.415538,140 C383.099538,139.808 383.705538,139.568 384.233538,139.28 C384.761538,138.992 385.217538,138.662 385.601538,138.29 C385.985538,137.918 386.309538,137.552 386.573538,137.192 L386.573538,137.192 L386.933538,137.192 L387.833538,140.072 L390.245538,140.072 C390.053538,139.352 389.915538,138.566 389.831538,137.714 C389.747538,136.862 389.705538,135.98 389.705538,135.068 C389.705538,133.508 389.753538,132.062 389.849538,130.73 C389.945538,129.398 389.993538,128.072 389.993538,126.752 C389.993538,126.056 389.915538,125.354 389.759538,124.646 C389.603538,123.938 389.285538,123.296 388.805538,122.72 C388.325538,122.144 387.647538,121.67 386.771538,121.298 C385.895538,120.926 384.737538,120.74 383.297538,120.74 C380.105538,120.74 377.429538,121.256 375.269538,122.288 L375.269538,122.288 L376.169538,125.06 C376.601538,124.844 377.087538,124.64 377.627538,124.448 C378.167538,124.256 378.713538,124.094 379.265538,123.962 C379.817538,123.83 380.369538,123.728 380.921538,123.656 C381.473538,123.584 381.977538,123.548 382.433538,123.548 C383.225538,123.548 383.897538,123.608 384.449538,123.728 C385.001538,123.848 385.439538,124.046 385.763538,124.322 C386.087538,124.598 386.321538,124.964 386.465538,125.42 C386.609538,125.876 386.681538,126.44 386.681538,127.112 C386.681538,127.52 386.669538,127.856 386.645538,128.12 C386.621538,128.384 386.585538,128.696 386.537538,129.056 C386.345538,129.032 386.129538,129.002 385.889538,128.966 C385.649538,128.93 385.355538,128.894 385.007538,128.858 C384.659538,128.822 384.227538,128.792 383.711538,128.768 C383.195538,128.744 382.565538,128.732 381.821538,128.732 C380.885538,128.732 379.943538,128.852 378.995538,129.092 C378.047538,129.332 377.201538,129.704 376.457538,130.208 C375.713538,130.712 375.107538,131.36 374.639538,132.152 C374.171538,132.944 373.937538,133.88 373.937538,134.96 C373.937538,135.776 374.093538,136.514 374.405538,137.174 C374.717538,137.834 375.143538,138.392 375.683538,138.848 C376.223538,139.304 376.865538,139.658 377.609538,139.91 C378.353538,140.162 379.169538,140.288 380.057538,140.288 Z M381.137538,137.48 C380.057538,137.48 379.175538,137.24 378.491538,136.76 C377.807538,136.28 377.465538,135.56 377.465538,134.6 C377.465538,133.328 377.903538,132.428 378.779538,131.9 C379.655538,131.372 380.837538,131.108 382.325538,131.108 C382.973538,131.108 383.519538,131.12 383.963538,131.144 C384.407538,131.168 384.791538,131.192 385.115538,131.216 C385.439538,131.24 385.709538,131.276 385.925538,131.324 C386.141538,131.372 386.345538,131.408 386.537538,131.432 L386.537538,131.432 L386.537538,134.312 C386.393538,134.672 386.183538,135.038 385.907538,135.41 C385.631538,135.782 385.271538,136.118 384.827538,136.418 C384.383538,136.718 383.855538,136.97 383.243538,137.174 C382.631538,137.378 381.929538,137.48 381.137538,137.48 Z M401.394462,140.504 C401.682462,140.504 402.006462,140.486 402.366462,140.45 C402.726462,140.414 403.086462,140.36 403.446462,140.288 C403.806462,140.216 404.154462,140.138 404.490462,140.054 C404.826462,139.97 405.114462,139.88 405.354462,139.784 L405.354462,139.784 L404.922462,137.336 C404.418462,137.48 403.986462,137.576 403.626462,137.624 C403.266462,137.672 402.894462,137.696 402.510462,137.696 C401.886462,137.696 401.388462,137.492 401.016462,137.084 C400.644462,136.676 400.458462,135.98 400.458462,134.996 L400.458462,134.996 L400.458462,114.8 L397.146462,114.8 L397.146462,136.22 C397.146462,137.756 397.530462,138.854 398.298462,139.514 C399.066462,140.174 400.098462,140.504 401.394462,140.504 Z M424.052308,140 L424.052308,123.908 L429.596308,123.908 L429.596308,121.1 L424.052308,121.1 C424.052308,120.308 424.088308,119.654 424.160308,119.138 C424.232308,118.622 424.382308,118.214 424.610308,117.914 C424.838308,117.614 425.156308,117.404 425.564308,117.284 C425.972308,117.164 426.512308,117.104 427.184308,117.104 C427.688308,117.104 428.210308,117.14 428.750308,117.212 C429.290308,117.284 429.872308,117.452 430.496308,117.716 L430.496308,117.716 L431.216308,115.016 C430.472308,114.752 429.758308,114.566 429.074308,114.458 C428.390308,114.35 427.592308,114.296 426.680308,114.296 C425.600308,114.296 424.682308,114.404 423.926308,114.62 C423.170308,114.836 422.558308,115.19 422.090308,115.682 C421.622308,116.174 421.280308,116.822 421.064308,117.626 C420.848308,118.43 420.740308,119.42 420.740308,120.596 L420.740308,120.596 L420.740308,121.1 L417.536308,121.1 L417.536308,123.908 L420.740308,123.908 L420.740308,140 L424.052308,140 Z M441.033231,140.504 C442.473231,140.504 443.763231,140.276 444.903231,139.82 C446.043231,139.364 447.003231,138.704 447.783231,137.84 C448.563231,136.976 449.163231,135.932 449.583231,134.708 C450.003231,133.484 450.213231,132.104 450.213231,130.568 C450.213231,129.128 450.027231,127.802 449.655231,126.59 C449.283231,125.378 448.713231,124.322 447.945231,123.422 C447.177231,122.522 446.217231,121.82 445.065231,121.316 C443.913231,120.812 442.569231,120.56 441.033231,120.56 C439.569231,120.56 438.267231,120.788 437.127231,121.244 C435.987231,121.7 435.021231,122.36 434.229231,123.224 C433.437231,124.088 432.837231,125.138 432.429231,126.374 C432.021231,127.61 431.817231,129.008 431.817231,130.568 C431.817231,131.984 432.003231,133.298 432.375231,134.51 C432.747231,135.722 433.311231,136.772 434.067231,137.66 C434.823231,138.548 435.777231,139.244 436.929231,139.748 C438.081231,140.252 439.449231,140.504 441.033231,140.504 Z M441.069231,137.696 C440.013231,137.696 439.125231,137.492 438.405231,137.084 C437.685231,136.676 437.097231,136.136 436.641231,135.464 C436.185231,134.792 435.855231,134.03 435.651231,133.178 C435.447231,132.326 435.345231,131.456 435.345231,130.568 C435.345231,128.144 435.831231,126.338 436.803231,125.15 C437.775231,123.962 439.197231,123.368 441.069231,123.368 C442.077231,123.368 442.941231,123.572 443.661231,123.98 C444.381231,124.388 444.963231,124.922 445.407231,125.582 C445.851231,126.242 446.175231,127.004 446.379231,127.868 C446.583231,128.732 446.685231,129.632 446.685231,130.568 C446.685231,135.32 444.813231,137.696 441.069231,137.696 Z M459.130154,140 L459.130154,127.184 C459.298154,126.2 459.736154,125.384 460.444154,124.736 C461.152154,124.088 462.142154,123.764 463.414154,123.764 C463.750154,123.764 464.110154,123.812 464.494154,123.908 C464.878154,124.004 465.274154,124.112 465.682154,124.232 L465.682154,124.232 L466.330154,121.064 C465.874154,120.92 465.418154,120.818 464.962154,120.758 C464.506154,120.698 464.110154,120.668 463.774154,120.668 C462.670154,120.668 461.752154,120.926 461.020154,121.442 C460.288154,121.958 459.646154,122.684 459.094154,123.62 L459.094154,123.62 L458.770154,123.62 L458.122154,121.1 L455.818154,121.1 L455.818154,140 L459.130154,140 Z M488.556,140.36 L498.996,114.8 L495.396,114.8 L488.916,131.504 L487.944,135.5 L487.872,135.5 L486.936,131.576 L480.132,114.8 L476.172,114.8 L486.756,140.36 L488.556,140.36 Z M507.192923,140.504 C508.848923,140.504 510.228923,140.168 511.332923,139.496 C512.436923,138.824 513.300923,137.948 513.924923,136.868 L513.924923,136.868 L514.284923,136.868 L515.148923,140 L517.380923,140 C517.236923,139.232 517.128923,138.374 517.056923,137.426 C516.984923,136.478 516.948923,135.548 516.948923,134.636 L516.948923,134.636 L516.948923,121.1 L513.636923,121.1 L513.636923,133.448 C513.156923,134.648 512.460923,135.656 511.548923,136.472 C510.636923,137.288 509.460923,137.696 508.020923,137.696 C507.180923,137.696 506.490923,137.558 505.950923,137.282 C505.410923,137.006 504.984923,136.61 504.672923,136.094 C504.360923,135.578 504.144923,134.936 504.024923,134.168 C503.904923,133.4 503.844923,132.512 503.844923,131.504 L503.844923,131.504 L503.844923,121.1 L500.532923,121.1 L500.532923,132.26 C500.532923,133.844 500.670923,135.164 500.946923,136.22 C501.222923,137.276 501.642923,138.122 502.206923,138.758 C502.770923,139.394 503.466923,139.844 504.294923,140.108 C505.122923,140.372 506.088923,140.504 507.192923,140.504 Z M532.165846,140.504 C533.629846,140.504 534.985846,140.318 536.233846,139.946 C537.481846,139.574 538.525846,139.076 539.365846,138.452 L539.365846,138.452 L538.105846,135.932 C537.601846,136.412 536.893846,136.826 535.981846,137.174 C535.069846,137.522 534.109846,137.696 533.101846,137.696 C530.677846,137.696 528.961846,137.132 527.953846,136.004 C526.945846,134.876 526.417846,133.208 526.369846,131 L526.369846,131 L539.869846,131 C539.941846,130.52 539.989846,130.028 540.013846,129.524 C540.037846,129.02 540.049846,128.576 540.049846,128.192 C540.049846,126.608 539.815846,125.324 539.347846,124.34 C538.879846,123.356 538.273846,122.582 537.529846,122.018 C536.785846,121.454 535.945846,121.07 535.009846,120.866 C534.073846,120.662 533.137846,120.56 532.201846,120.56 C529.249846,120.56 526.975846,121.418 525.379846,123.134 C523.783846,124.85 522.985846,127.328 522.985846,130.568 C522.985846,132.08 523.165846,133.448 523.525846,134.672 C523.885846,135.896 524.437846,136.94 525.181846,137.804 C525.925846,138.668 526.879846,139.334 528.043846,139.802 C529.207846,140.27 530.581846,140.504 532.165846,140.504 Z M536.881846,128.624 L526.513846,128.624 C526.681846,126.704 527.257846,125.348 528.241846,124.556 C529.225846,123.764 530.557846,123.368 532.237846,123.368 C533.725846,123.368 534.883846,123.764 535.711846,124.556 C536.539846,125.348 536.929846,126.704 536.881846,128.624 L536.881846,128.624 Z M546.914769,140.432 C547.634769,140.432 548.216769,140.216 548.660769,139.784 C549.104769,139.352 549.326769,138.812 549.326769,138.164 C549.326769,137.468 549.104769,136.916 548.660769,136.508 C548.216769,136.1 547.634769,135.896 546.914769,135.896 C546.194769,135.896 545.612769,136.1 545.168769,136.508 C544.724769,136.916 544.502769,137.468 544.502769,138.164 C544.502769,138.812 544.724769,139.352 545.168769,139.784 C545.612769,140.216 546.194769,140.432 546.914769,140.432 Z M557.091692,118.688 C557.787692,118.688 558.363692,118.478 558.819692,118.058 C559.275692,117.638 559.503692,117.152 559.503692,116.6 C559.503692,116.048 559.275692,115.55 558.819692,115.106 C558.363692,114.662 557.787692,114.44 557.091692,114.44 C556.395692,114.44 555.831692,114.662 555.399692,115.106 C554.967692,115.55 554.751692,116.048 554.751692,116.6 C554.751692,117.152 554.967692,117.638 555.399692,118.058 C555.831692,118.478 556.395692,118.688 557.091692,118.688 Z M553.275692,147.56 C555.219692,147.56 556.629692,146.99 557.505692,145.85 C558.381692,144.71 558.819692,142.976 558.819692,140.648 L558.819692,140.648 L558.819692,121.1 L555.507692,121.1 L555.507692,139.46 C555.507692,140.372 555.465692,141.158 555.381692,141.818 C555.297692,142.478 555.129692,143.03 554.877692,143.474 C554.625692,143.918 554.265692,144.248 553.797692,144.464 C553.329692,144.68 552.699692,144.776 551.907692,144.752 L551.907692,144.752 L551.907692,147.488 C552.171692,147.536 552.417692,147.56 552.645692,147.56 L552.645692,147.56 L553.275692,147.56 Z M571.804615,140.504 C574.204615,140.504 576.004615,139.946 577.204615,138.83 C578.404615,137.714 579.004615,136.268 579.004615,134.492 C579.004615,133.508 578.818615,132.692 578.446615,132.044 C578.074615,131.396 577.588615,130.862 576.988615,130.442 C576.388615,130.022 575.728615,129.686 575.008615,129.434 C574.288615,129.182 573.568615,128.96 572.848615,128.768 C572.320615,128.624 571.816615,128.474 571.336615,128.318 C570.856615,128.162 570.436615,127.982 570.076615,127.778 C569.716615,127.574 569.428615,127.334 569.212615,127.058 C568.996615,126.782 568.888615,126.44 568.888615,126.032 C568.888615,125.024 569.176615,124.328 569.752615,123.944 C570.328615,123.56 571.204615,123.368 572.380615,123.368 C573.460615,123.368 574.450615,123.518 575.350615,123.818 C576.250615,124.118 577.024615,124.424 577.672615,124.736 L577.672615,124.736 L578.464615,121.928 C577.696615,121.592 576.796615,121.28 575.764615,120.992 C574.732615,120.704 573.460615,120.56 571.948615,120.56 C569.932615,120.56 568.366615,121.016 567.250615,121.928 C566.134615,122.84 565.576615,124.232 565.576615,126.104 C565.576615,127.064 565.756615,127.856 566.116615,128.48 C566.476615,129.104 566.938615,129.614 567.502615,130.01 C568.066615,130.406 568.702615,130.718 569.410615,130.946 C570.118615,131.174 570.820615,131.384 571.516615,131.576 C572.068615,131.744 572.596615,131.912 573.100615,132.08 C573.604615,132.248 574.048615,132.446 574.432615,132.674 C574.816615,132.902 575.122615,133.178 575.350615,133.502 C575.578615,133.826 575.692615,134.228 575.692615,134.708 C575.692615,135.86 575.314615,136.646 574.558615,137.066 C573.802615,137.486 572.836615,137.696 571.660615,137.696 C570.580615,137.696 569.512615,137.516 568.456615,137.156 C567.400615,136.796 566.536615,136.436 565.864615,136.076 L565.864615,136.076 L564.928615,138.956 C565.696615,139.364 566.650615,139.724 567.790615,140.036 C568.930615,140.348 570.268615,140.504 571.804615,140.504 Z" transform="translate(340 85)"/></g></g></svg>